<svg width="71" height="62" viewBox="0 0 71 62" fill="none" xmlns="http://www.w3.org/2000/svg">
<path d="M61.0329 38.2897C61.0246 39.2494 60.6502 40.073 59.9263 40.7026L58.3926 42.0311C57.383 42.8964 57.028 44.2165 57.4552 45.4757L58.1374 47.5004C58.4425 48.41 58.351 49.3115 57.8684 50.1407C57.3858 50.9645 56.6481 51.497 55.7023 51.6745L53.7082 52.0572C52.4019 52.3124 51.4368 53.272 51.1733 54.5783L50.7545 56.6667C50.5631 57.6041 50.0306 58.3419 49.1986 58.8189C48.3665 59.2959 47.4652 59.3791 46.5582 59.0685L44.6418 58.4084C43.3854 57.9674 42.0653 58.3224 41.1833 59.3181L39.7605 60.91C39.1226 61.6339 38.2989 62.0028 37.3393 61.9972C36.3796 61.9889 35.5559 61.6144 34.9264 60.8906L33.5979 59.3568C32.7325 58.3556 31.4124 57.9923 30.1532 58.4194L28.5918 58.9436C28.614 58.8437 28.6279 58.7439 28.6417 58.644L29.7844 50.4016C31.9699 51.7717 34.5631 52.5677 37.331 52.5677C45.205 52.5677 51.595 46.1777 51.595 38.3037C51.595 30.4298 45.205 24.0398 37.331 24.0398C29.4571 24.0398 23.0671 30.4298 23.0671 38.3037C23.0671 40.1065 23.3999 41.8316 24.01 43.4152H19.8277C19.9136 42.9603 19.9691 42.4999 20.0052 42.0451C20.1189 40.3478 20.0274 38.4535 19.4643 36.8421C18.9873 35.4776 18.1442 34.3349 16.9572 33.7331C17.412 32.9509 17.5119 32.0218 17.2068 31.1205L16.5245 29.0958C16.2194 28.1862 16.311 27.2848 16.7936 26.4555C17.2761 25.6317 18.0139 25.0992 18.9596 24.9217L20.9537 24.539C22.26 24.2894 23.2335 23.3242 23.4887 22.0262L23.9158 19.9378C24.1016 19.0004 24.6396 18.2626 25.4717 17.7856C26.3093 17.3086 27.2051 17.2254 28.112 17.536L30.0285 18.1961C31.2848 18.6288 32.605 18.2821 33.487 17.2865L34.8987 15.689C35.5366 14.9651 36.3603 14.5962 37.3199 14.6018C38.2796 14.6101 39.1088 14.9845 39.7328 15.7084L41.0613 17.2422C41.9267 18.2517 43.2468 18.6067 44.506 18.1796L46.5306 17.4973C47.4403 17.1922 48.3417 17.2838 49.171 17.7663C49.9947 18.2489 50.5272 18.9867 50.7047 19.9324L51.0874 21.9265C51.3371 23.2328 52.3022 24.198 53.6002 24.4615L55.6886 24.8802C56.626 25.0716 57.3638 25.6041 57.8408 26.4361C58.3178 27.2682 58.401 28.1695 58.0904 29.0765L57.4386 30.9985C57.006 32.2548 57.3527 33.575 58.3483 34.457L59.9458 35.8687C60.6697 36.501 61.0385 37.3328 61.0329 38.2897ZM24.504 45.6397H16.8494C17.3459 44.4055 17.6953 43.1547 17.7785 41.8844C17.9921 38.9029 17.3736 35.5082 14.9801 35.5082C12.9361 35.5082 12.7225 37.5384 12.778 39.0582C12.8834 41.8483 11.5715 45.2569 9.46091 47.7061C9.51638 47.939 9.55244 48.197 9.55244 48.4521V60.5861L10.7866 60.8912C11.1916 60.991 11.5327 61.1047 11.9515 61.1047H23.2391C24.8505 61.1047 26.2012 59.9344 26.4203 58.3369L27.6766 49.2985C27.8125 48.3473 27.549 47.4736 26.9167 46.7497C26.2927 46.0231 25.4608 45.6397 24.504 45.6397ZM6.54585 47.6699H1.13761C0.710499 47.6699 0.355469 48.0165 0.355469 48.452V61.2179C0.355469 61.6505 0.702149 62 1.13761 62H6.54862C6.97573 62 7.33076 61.6533 7.33076 61.2179L7.32798 48.4492C7.32798 48.0165 6.97299 47.6699 6.54585 47.6699ZM51.2065 14.2635C51.739 14.5686 52.4129 14.3911 52.7263 13.853L56.8865 6.64789C57.1916 6.11539 57.0086 5.43315 56.4761 5.12806C55.9435 4.82297 55.2613 5.00048 54.9562 5.53852L50.8016 12.7522C50.4882 13.2847 50.674 13.9584 51.2065 14.2635ZM21.938 13.8586C22.2431 14.3911 22.917 14.5769 23.4579 14.269C23.9904 13.9639 24.1679 13.29 23.8683 12.7492L19.7081 5.54408C19.403 5.01157 18.7291 4.82577 18.1883 5.1336C17.6558 5.43868 17.4783 6.11263 17.7778 6.65344L21.938 13.8586ZM37.3309 10.5582C37.9494 10.5582 38.4458 10.0617 38.4458 9.44326V1.11492C38.4458 0.496441 37.9494 0 37.3309 0C36.7124 0 36.216 0.496448 36.216 1.11492V9.43545C36.2187 10.0539 36.7152 10.5582 37.3309 10.5582ZM4.57346 20.6672L11.7786 24.8274C12.3111 25.1325 12.9933 24.955 13.2984 24.4225C13.6035 23.89 13.426 23.2077 12.8935 22.9026L5.69334 18.7425C5.16084 18.4374 4.47859 18.6149 4.17351 19.1474C3.86288 19.6799 4.04096 20.3621 4.57346 20.6672ZM70.4902 19.1474C70.1851 18.6149 69.5029 18.4374 68.9704 18.7425L61.7624 22.9054C61.2299 23.2105 61.0524 23.8927 61.3575 24.4253C61.6626 24.9578 62.3448 25.1353 62.8773 24.8302L70.0824 20.67C70.6232 20.3621 70.8008 19.6799 70.4902 19.1474ZM37.4253 27.9947C36.8068 27.9947 36.3104 28.4995 36.3104 29.1152V30.4714C35.459 30.6628 34.6991 31.0816 34.0944 31.6502C33.2152 32.4739 32.6744 33.6165 32.6744 34.8813C32.6744 36.1376 33.2152 37.2803 34.0944 38.104C34.7961 38.7641 35.7197 39.2245 36.7431 39.3687C36.8429 39.3964 36.9566 39.4186 37.0704 39.4186H37.2479C37.9579 39.4186 38.5957 39.6877 39.0589 40.1203C39.4999 40.5308 39.7689 41.0993 39.7689 41.7261C39.7689 42.3502 39.4999 42.9132 39.0589 43.3319C38.5985 43.7646 37.9579 44.0281 37.2479 44.0281C36.6876 44.0281 36.169 43.8589 35.7502 43.5815C35.3314 43.2987 35.0124 42.8937 34.8488 42.4306C34.6436 41.8481 34.0112 41.5431 33.4288 41.7483C32.8464 41.9535 32.5413 42.5942 32.7465 43.1683C33.0738 44.0836 33.6895 44.8656 34.5077 45.4204C34.9986 45.7476 35.545 45.9945 36.1413 46.1304V47.4866C36.1413 48.1051 36.6377 48.6015 37.2562 48.6015C37.8747 48.6015 38.3767 48.1051 38.3767 47.4866V46.1221C39.2226 45.9224 39.988 45.5036 40.5926 44.9433C41.4718 44.1196 42.0127 42.9769 42.0127 41.7122C42.0127 40.4559 41.4718 39.3132 40.5926 38.4894C39.891 37.8294 38.9674 37.369 37.944 37.2248C37.8441 37.1971 37.7304 37.1749 37.6167 37.1749H37.4392C36.7292 37.1749 36.0913 36.9058 35.6364 36.4732C35.1899 36.0627 34.9181 35.4942 34.9181 34.8674C34.9181 34.2433 35.1872 33.6748 35.6364 33.2616C36.0913 32.8289 36.7292 32.5599 37.4392 32.5599C38.0078 32.5599 38.5181 32.729 38.9369 33.0147C39.3557 33.2976 39.6747 33.7025 39.8382 34.1657C40.0435 34.7481 40.6841 35.0532 41.2582 34.848C41.8407 34.6427 42.1458 34.0104 41.9405 33.428C41.6133 32.5127 40.9976 31.7306 40.1794 31.1759C39.6885 30.8486 39.1421 30.6018 38.5458 30.4659V29.1096C38.5402 28.4995 38.041 27.9947 37.4253 27.9947Z" fill="#E95522"/>
</svg>
