<svg width="25" height="28" viewBox="0 0 25 28" fill="none" xmlns="http://www.w3.org/2000/svg">
<path fill-rule="evenodd" clip-rule="evenodd" d="M3.10501 26.1707L1.42188 4.23254H22.9113L21.2282 26.1707C21.1488 27.2029 20.2867 28 19.2522 28H5.08252C4.04665 28 3.18436 27.2029 3.10501 26.1707ZM9.19306 9.18472C9.19306 8.63784 8.74971 8.19488 8.20235 8.19488C7.65499 8.19488 7.21027 8.63784 7.21027 9.18472V21.0683C7.21027 21.6152 7.65499 22.0582 8.20235 22.0582C8.74971 22.0582 9.19306 21.6152 9.19306 21.0683V9.18472ZM13.1572 9.18472C13.1572 8.63784 12.7138 8.19488 12.1665 8.19488C11.6191 8.19488 11.1757 8.63784 11.1757 9.18472V21.0683C11.1757 21.6152 11.6191 22.0582 12.1665 22.0582C12.7138 22.0582 13.1572 21.6152 13.1572 21.0683V9.18472ZM17.1227 9.18472C17.1227 8.63784 16.678 8.19488 16.1306 8.19488C15.5833 8.19488 15.1399 8.63784 15.1399 9.18472V21.0683C15.1399 21.6152 15.5833 22.0582 16.1306 22.0582C16.678 22.0582 17.1227 21.6152 17.1227 21.0683V9.18472Z" fill="#ABABAB"/>
<path fill-rule="evenodd" clip-rule="evenodd" d="M7.90406 0H16.5277V2.15332H24.4314V3.59025H0V2.15332H7.90371L7.90406 0ZM9.34226 2.15332H15.0909V1.43553H9.34226V2.15332Z" fill="#ABABAB"/>
</svg>
