<svg width="104" height="62" viewBox="0 0 104 62" fill="none" xmlns="http://www.w3.org/2000/svg">
<path fill-rule="evenodd" clip-rule="evenodd" d="M11.5393 3.7026C11.5393 1.65562 13.1847 0 15.2141 0H66.7138C68.7433 0 70.3933 1.65574 70.3933 3.7026V11.1032H84.3383C88.3165 11.1032 91.9867 13.2598 93.945 16.7431L100.877 29.0912C102.594 32.1449 103.5 35.5947 103.5 39.1065V45.3428C103.5 49.432 100.204 52.7481 96.1404 52.7481H94.2627C93.798 57.9347 89.4641 62 84.1866 62C78.909 62 74.5751 57.9347 74.1105 52.7481H42.7634C42.2987 57.9347 37.9648 62 32.6873 62C27.4097 62 23.0806 57.9347 22.6159 52.7481H15.2141C13.1846 52.7481 11.5393 51.0876 11.5393 49.0455V41.6402H2.34047C1.32575 41.6402 0.500728 40.8147 0.500728 39.7889C0.500728 38.7678 1.32579 37.9424 2.34047 37.9424H17.0538C18.0733 37.9424 18.8936 38.7678 18.8936 39.7889C18.8936 40.8148 18.0733 41.6402 17.0538 41.6402H15.2141V49.0455H22.9525C24.1569 44.7703 28.0593 41.6402 32.6872 41.6402C37.3198 41.6402 41.2222 44.7703 42.4218 49.0455H66.7138V3.70236H15.2141V6.47931C15.2141 7.5004 14.3938 8.33061 13.3791 8.33061C12.3596 8.33061 11.5393 7.50037 11.5393 6.47931V3.7026ZM70.3927 49.0458H74.4517C75.6513 44.7705 79.5537 41.6405 84.1863 41.6405C88.8142 41.6405 92.7166 44.7705 93.921 49.0458H96.1401C98.1743 49.0458 99.8195 47.39 99.8195 45.3432V39.1068C99.8195 37.9855 99.7057 36.869 99.4829 35.7811L83.0908 30.5324C80.5113 29.7069 78.5909 27.5168 78.093 24.84L76.22 14.8056H70.3924L70.3927 49.0458ZM79.9662 14.806L81.7064 24.158C81.9577 25.4989 82.9155 26.5915 84.2053 27.0018L97.9414 31.4011C97.8561 31.2389 97.766 31.0719 97.6759 30.9097L90.7436 18.5665C89.4349 16.2428 86.9881 14.8066 84.3376 14.8066L79.9662 14.806ZM0.5 12.0291C0.5 11.008 1.32506 10.1778 2.33975 10.1778H40.9652C41.9799 10.1778 42.8049 11.008 42.8049 12.0291C42.8049 13.0502 41.9799 13.8804 40.9652 13.8804H15.2129V20.36C15.2129 21.3811 14.3926 22.2113 13.3779 22.2113C12.3584 22.2113 11.5381 21.3811 11.5381 20.36V13.8804H2.33926C1.32453 13.8804 0.5 13.0501 0.5 12.0291ZM0.5 25.9089C0.5 24.8878 1.32506 24.0576 2.33975 24.0576H29.0122C30.0269 24.0576 30.8472 24.8879 30.8472 25.9089C30.8472 26.9348 30.0269 27.7602 29.0122 27.7602H15.2141V34.2399C15.2141 35.261 14.3938 36.0912 13.3791 36.0912C12.3596 36.0912 11.5393 35.261 11.5393 34.2399V27.7602H2.34047C1.32575 27.7602 0.5 26.9348 0.5 25.9089ZM32.687 45.3429C29.3773 45.3429 26.6461 47.8623 26.2905 51.0973C26.2668 51.3359 26.2526 51.5744 26.2526 51.8226C26.2526 55.3964 29.1356 58.2975 32.6871 58.2975C36.2434 58.2975 39.1263 55.3964 39.1263 51.8226C39.1263 51.5744 39.1121 51.3359 39.0884 51.0973C38.7328 47.8623 36.0014 45.3429 32.687 45.3429ZM84.1868 45.3429C80.8723 45.3429 78.1458 47.8623 77.7903 51.0973C77.7619 51.3359 77.7476 51.5744 77.7476 51.8226C77.7476 55.3964 80.6306 58.2975 84.1869 58.2975C87.7431 58.2975 90.6214 55.3964 90.6214 51.8226C90.6214 51.5744 90.6119 51.3359 90.5834 51.0973C90.2278 47.8623 87.4964 45.3429 84.1868 45.3429Z" fill="#E95522"/>
</svg>
