<?xml version="1.0" encoding="utf-8"?>
<!-- Generator: Adobe Illustrator 28.0.0, SVG Export Plug-In . SVG Version: 6.00 Build 0)  -->
<svg version="1.1" id="Layer_1" xmlns="http://www.w3.org/2000/svg" xmlns:xlink="http://www.w3.org/1999/xlink" x="0px" y="0px"
	 viewBox="0 0 595.3 841.9" style="enable-background:new 0 0 595.3 841.9;" xml:space="preserve">
<style type="text/css">
	.st0{fill:#868686;}
	.st1{fill:#E95522;}
	.st2{fill:#2B2A29;}
</style>
<g>
	<path class="st0" d="M1367.7,1758.9c0.3,0,0.6,0,0.9,0c0,122.6,0,245.3,0,367.9c-0.4-0.1-0.7-0.1-1.1-0.2c-2.1-2.6-1.4-5.8-1.4-8.8
		c0-56.5,0-112.9,0-169.4c0-60.3,0-120.6,0-180.9C1366.2,1764.7,1365.5,1761.5,1367.7,1758.9z"/>
	<path class="st1" d="M-592.8,2177.5c-6.1,0-12.1,0-18.2,0c-2.4-0.2-4.8-0.6-7.1-0.7c-20-0.9-39.7-4-59.2-8.4
		c-51.9-11.7-100.5-31.8-146.9-57.8c-32.7-18.3-63.5-39.4-92.1-63.5c-27.3-23-52.2-48.4-73.2-77.4c-9-12.4-17.1-25.4-24-39.1
		c-10.9-21.5-18.3-44.1-20.7-68.2c0-1.1,0.1-2.2,0.1-3.3c-0.3-6-0.3-11.9,0-17.9c0-0.9-0.1-1.9-0.1-2.8c1.1-8.7,2.4-17.3,5.2-25.7
		c4-11.9,10-22.7,17.7-32.6c9.1-11.6,23.9-24.9,36.1-33.3c-1.2,1.4-3.7,4.1-4.1,4.6c-1.6,2-3.2,3.9-4.8,6
		c-7.5,9.8-11.3,20.9-11.8,33.3c-0.5,13.6,2.7,26.2,8.5,38.4c6.2,13.3,14.8,25,24.5,35.9c13.2,14.9,28.2,27.8,44.2,39.6
		c26.3,19.4,54.5,35.5,84.1,49.4c39,18.3,79.4,32.5,121.3,42.3c14.3,3.4,28.7,6.1,43.3,8.1c13.3,1.9,26.6,3.1,40,3.9
		c13,0.8,25.9,0.5,38.8-0.4c12.4-0.9,24.7-3.3,36.7-6.6c24.8-6.8,48.1-16.9,69.4-31.6c15.8-10.9,29.6-23.9,40.9-39.4
		c14-19.1,22.9-40.4,27.3-63.7c1.9-10.2,2.9-20.5,3.1-30.9c0.3-15.3-3-29.8-9.9-43.4c-0.4-0.9-0.8-1.7-1.2-2.6
		c-0.2-0.9-3.3-5.1,1.1-1c17.4,18.8,30.6,40,38.8,64.3c4.3,12.7,7.1,25.8,8.4,39.2c1.4,13.7,1,27.4,0.2,41.1
		c-0.5,8-1.2,15.9-2.3,23.8c-5.9,45-19.6,87.1-46,124.4c-30.2,42.7-70.4,72.1-120.4,87.9c-13.3,4.2-26.9,6.9-40.9,7.4
		C-588.4,2176.9-590.6,2177.3-592.8,2177.5z"/>
	<path class="st1" d="M-697.4,1685.9c1.3,0,2.6,0,3.8,0c6.7,0.4,13.4,0.7,20.1,1.2c8.8,0.7,17.5,1.5,26.2,2.5
		c8.2,0.9,16.5,1.9,24.7,3.2c36.1,5.5,71.4,14,105,28.6c15.6,6.8,30.4,14.9,43.9,25.3c9.6,7.3,18.1,15.7,25.2,25.5
		c13,18,18.3,38,16.6,60c-0.9,11.1-2.5,22.2-5.4,33c-7.4,27-21.5,50-42.1,68.9c-19.5,18-42.4,30.6-67.3,39.4
		c-13.6,4.8-27.5,8.3-41.7,10.3c-4.6,0.7-9.2,1-13.8,1.3c-12,0.7-24,0.5-35.9-0.1c-8.8-0.5-17.5-1.2-26.2-2.5
		c-5.5-0.8-16.7-2-18-2.9c0.5-0.1,8.5-1.6,12.1-2.2c14.5-2.5,28.7-6.3,42.1-12.5c12.1-5.7,23-13.1,31.7-23.4
		c10.1-12,15.4-25.9,16.3-41.6c1-17.4-3.2-33.9-10.1-49.7c-7.8-17.9-18.6-33.8-31.2-48.5c-23.2-26.9-50.9-48.3-81.9-65.4
		c-27.4-15.1-56.5-25.9-87.1-32.6c-10.9-2.4-22-4.1-33.1-5.3c-5.4-0.6-10.8-0.6-16.2-1.3c-0.9-0.1-1.8-0.3-2.8-1
		c3.7-0.7,7.3-1.5,11-2.1c13.1-2,26.2-3.9,39.4-5.2c13-1.3,26.1-2.2,39.2-2.8c2.2,0,4.5,0,6.7,0c2.9,0,5.7,0,8.6,0c9,0,18,0,27,0
		c2.2,0,4.5,0,6.7,0C-701.9,1685.9-699.6,1685.9-697.4,1685.9z"/>
	<path class="st2" d="M-166.5,2028.7c0,31,0,61.9,0,92.9c0,5.8,0.6,5.2-5,5.2c-18.9,0-37.7,0-56.6,0c-1.1,0-2.2,0-3.4,0
		c-1.1,0-1.8-0.5-1.8-1.7c0-1.6,0-3.2,0-4.8c0-61.1,0-122.3,0-183.4c0-7.7,1-6.6-6.5-6.6c-12.6-0.1-25.3,0-37.9,0
		c-1.3,0-2.6,0-3.8,0c-1.2,0-1.7-0.7-1.8-1.8c-0.1-0.8,0-1.6,0-2.4c0-16.9,0-33.8,0-50.8c0-0.6,0-1.3,0-1.9c0.1-1.6,0.5-2,2-2.1
		c1.3-0.1,2.6,0,3.8,0c13,0,25.9,0,38.9,0c1.3,0,2.6,0,3.8-0.1c0.9-0.1,1.5-0.6,1.5-1.5c0-1.3,0.1-2.6,0.1-3.8c0-8.9,0-17.9,0-26.8
		c0-6.6,0.7-13,2.2-19.5c1.5-6.4,3.3-12.7,5.5-18.8c4.8-13.3,13.3-23.9,24.4-32.5c14.3-11,30.4-16.6,48.5-16.8
		c9.8-0.1,19.5,0,29.2,0.8c10.7,0.8,21.2,2.8,31.1,7.2c0.3,0.1,0.6,0.2,0.9,0.4c1.5,0.8,3.9,0.7,4.6,2.2c0.9,1.9-0.1,4-0.6,6
		c-1.9,7.6-4.4,15-6.8,22.4c-2.5,7.6-5.1,15.1-6.9,22.9c-0.5,2.2-1.3,2.2-3,1.7c-2.5-0.7-4.9-1.4-7.3-2.2
		c-7.7-2.5-15.5-3.6-23.6-3.2c-4.5,0.2-8.9,1.2-13,2.9c-10,4.2-15.6,11.9-17.5,22.3c-0.6,3.1-0.9,6.3-0.9,9.5c0.1,7.5,0,15,0,22.5
		c0,0.8,0,1.6,0,2.4c0,1.1,0.5,1.8,1.7,1.9c1.3,0.1,2.6,0,3.8,0c21.9,0,43.8,0,65.7,0c6.4,0,5.8-0.9,5.8,5.9c0,16.3,0,32.6,0,48.9
		c0,4.6-0.3,4.2-4.2,4.2c-22.4,0-44.8,0-67.2,0c-6.4,0-5.7-0.6-5.7,5.5C-166.5,1966.8-166.5,1997.8-166.5,2028.7z"/>
	<path class="st2" d="M822.1,2051.6c1.7-0.7,1.6-2,2-3c9.5-24.2,18.8-48.4,28.3-72.7c12.9-33.3,25.9-66.6,38.8-99.9
		c2.2-5.6,1-4.8,7.1-4.8c20.9,0,41.9,0,62.8,0c1,0,1.9,0,2.9,0c1.3,0.1,1.8,0.6,1.3,1.8c-1.2,3.1-2.5,6.2-3.8,9.3
		c-32.9,79.9-65.7,159.9-98.6,239.8c-2.2,5.4-1.1,4.6-6.8,4.6c-22.4,0-44.8,0-67.1,0c-0.6,0-1.3-0.1-1.9,0c-2.1,0.3-3.1-0.6-3.9-2.6
		c-4.3-10.6-8.7-21.2-13.1-31.9c-29.6-72-59.2-143.9-88.8-215.9c-2.5-6-2.2-5.2,3.4-5.2c20.8,0,41.6,0,62.4,0c0.8,0,1.6,0.1,2.4,0
		c2.2-0.3,3.1,0.9,3.8,2.7c2.9,7.8,6,15.5,9,23.2c19.5,50.4,39.1,100.8,58.6,151.2C821.2,2049.4,821.6,2050.4,822.1,2051.6z"/>
	<path class="st1" d="M-662.3,1804c-15.7-7.6-32.3-12.5-49.6-15.6c-16.4-2.9-32.9-4.1-49.6-3.5c-26,1-51.4,5.4-75.6,15.1
		c-12.5,5-24.3,11.3-34.7,19.9c-5.9,4.9-11.2,10.4-15.4,16.9c-6.1,9.5-9.3,19.9-8.7,31.3c0.5,8,2.7,15.7,6.2,22.9
		c1.6,3.3,3.4,6.5,5.1,9.7c0.4,0.9,1.4,1.8,0,1.2c-0.3-0.1-0.6-0.2-0.6-0.3c-0.3-0.1-0.6-0.3-1.1-0.5
		c-24.8-15.7-42.2-31.1-53.2-42.2c-9.2-9.2-15.9-17.5-22.3-27.5c-6-9.3-10.8-19.2-13.3-30.1c-5.1-22.1-0.1-41.4,15.8-57.7
		c8.7-8.9,19.2-15.3,30.6-20.3c12.5-5.5,25.7-8.6,39.1-10.7c16.1-2.4,32.2-2.6,48.3-1.6c16.5,0.9,32.7,3.6,48.7,7.7
		c35.7,9,68.6,24.1,98.2,46c16.9,12.5,32,26.9,45.4,43.1c0.6,0.7,2.9,3.8,3.4,4.5C-645.2,1813.1-657.3,1806.4-662.3,1804z"/>
	<path class="st2" d="M1367.7,1758.9c0,24.4,0,48.8,0,73.3c0,95.9,0,191.9,0,287.8c0,2.2-0.1,4.5-0.1,6.7c-1.3,0.1-2.5,0.2-3.8,0.2
		c-19,0-38,0-57.1,0c-1.1,0-2.2,0-3.4,0c-0.9,0-1.5-0.5-1.5-1.4c0-1.1-0.1-2.2-0.1-3.3c0-119.5,0-239.1,0-358.6
		c0-4.8-0.4-4.7,4.6-4.7c19.2,0,38.4,0,57.5,0C1365.2,1758.7,1366.4,1758.8,1367.7,1758.9z"/>
	<path class="st2" d="M643.2,1999c0,40.9,0,81.7,0,122.6c0,5.8,0.6,5.2-5,5.2c-19.3,0-38.7,0-58,0c-1.1,0-2.2,0-3.4,0
		c-0.9,0-1.5-0.5-1.5-1.5c0-1.1-0.1-2.2-0.1-3.4c0-81.9,0-163.8,0-245.7c0-1.1,0-2.2,0-3.4c0-0.9,0.5-1.5,1.4-1.6
		c1-0.1,1.9-0.1,2.9-0.1c19.8,0,39.7,0,59.5,0c4.3,0,4.2-0.1,4.2,4.2C643.2,1916.6,643.2,1957.8,643.2,1999z"/>
	<path class="st2" d="M570.2,1796.1c0-0.3,0-0.6,0-1c-0.8-9.2,3-16.7,9-23.4c3.3-3.7,7.2-6.8,11.5-9.3c9.5-5.3,19.6-6.7,30-3.5
		c14.6,4.6,24.5,14.1,28.5,29c2.2,8.1,1.2,16.1-2.4,23.8c-2.6,5.6-6.2,10.4-10.7,14.6c-5.1,4.7-11,7.5-17.9,8.4
		c-3.8,0.5-7.6,0.6-11.5,0.7c-5.8,0.1-11-1.4-16-4.2c-6.7-3.8-12-9-15.9-15.5c-3.1-5.2-5-10.7-4.7-16.8
		C570.2,1798,570.2,1797,570.2,1796.1z"/>
	<path class="st2" d="M510.2,2121.1c0-59.6,0-119.1,0-178.7c0-15.2,0-30.3,0-45.5c0-44.4,0-88.8,0-133.2c0-5.7,0.6-5-5.2-5.1
		c-18.7,0-37.4,0-56.1,0c-6.3,0-5.5-0.8-5.5,5.7c0,43.6,0,87.2,0,130.8c0,1.7,0.4,3.5-0.3,5.1c-2.4,0.1-3.4-1.9-4.9-3.2
		c-1.3-1.2-2.3-2.6-3.6-3.9c-2-2-3.9-4.2-6.2-6c-8.7-6.9-18-12.6-28.5-16.3c-9.1-3.2-18.5-5-28.1-5.9c-10.7-1-21.4-0.6-32,0.9
		c-10.4,1.5-20.1,4.9-29.7,9.1c-17.3,7.8-32.4,18.5-44.5,33.3c-21.4,25.9-31.4,55.9-31.8,89.3c-0.1,11.2,1.1,22.3,3.5,33.3
		c4.2,19.2,11.7,37.1,23.2,53.1c13.5,18.9,30.9,33.1,52.7,41.5c9.9,3.8,20.2,6,30.6,7.5c14.6,2.1,29,1.9,43.4-1.4
		c17.6-4.1,33.3-11.9,45.9-25.3c2.3-2.4,4.8-4.7,7.2-7c0.6-0.5,1.3-1,2-1.3c0.5-0.3,1,0,1,0.5c0.1,0.9,0.1,1.9,0.1,2.9
		c0,6.7,0,13.4,0,20.1c0,1.1,0,2.2,0,3.4c0.1,1.7,0.3,2,1.9,2.1c1.3,0,2.6,0,3.8,0c18.4,0,36.8,0,55.2,0
		C511,2126.8,510.2,2127.7,510.2,2121.1z M436.7,2034.2c-7.1,15.8-19.2,26.5-34.6,33.6c-33.3,15.4-74.1,3.6-92.3-29.8
		c-5.6-10.3-8.5-21.3-9.2-32.9c-0.1-2.1,0-4.1,0-6.2c-0.2-11.6,1.7-22.9,6.6-33.5c9.8-21.6,26.7-34.6,49.7-39.7
		c15.1-3.3,30-2,44.1,4.2c22.2,9.7,35.8,26.8,41.5,50.1C446.9,1998.6,444.5,2016.8,436.7,2034.2z"/>
	<path class="st2" d="M1249.1,1968c-3.5-20.7-12.2-39.2-24.5-56.1c-4.2-5.8-9.1-11.1-14.4-16c-14.6-13.3-31.9-21.6-50.8-26.8
		c-9.8-2.7-19.8-3.8-29.8-4.4c-13.1-0.8-26.2-0.8-39.2,1.8c-31.9,6.2-57.9,22.1-77.9,47.7c-15.8,20.3-24.7,43.4-27,69
		c-0.6,6.4-0.5,12.8-0.6,19.1c-0.3,19.2,3.9,37.3,11.4,54.9c12.3,28.7,32.8,49.5,60.9,62.9c19.2,9.1,39.5,13.5,60.7,14.3
		c12.2,0.5,24.3-0.6,36.3-2.9c14.5-2.8,28.4-7.4,41.4-14.6c19.5-10.9,34.9-26.2,47.1-44.8c1.3-2,2.4-4.2,3.4-6.3
		c0.7-1.4,1.5-2.8,1.4-4.6c-4.8-1.3-9.5-2.5-14.3-4c-12.4-3.7-24.7-7.6-37.1-11.4c-1.8-0.6-3.7-1-5.6-1.5c-1.9-0.5-3.4-0.2-4.5,1.6
		c-1.4,2.1-3.1,4-4.6,6.1c-3.5,5.1-8,9.1-13.1,12.4c-1.6,1-3.2,2.1-4.9,3c-8.3,5-17.3,8.2-27,9.3c-14.2,1.6-28.1,0.2-41.7-3.9
		c-11.6-3.5-21.6-9.6-29.1-19.2c-7.6-9.8-11.7-21.1-14.5-33c2-1.1,3.9-0.6,5.8-0.6c62.1,0,124.1,0,186.2,0c1.1,0,2.2,0,3.4,0
		c3.3-0.1,3.3-0.1,3.8-3.5c0.5-4.3,0.9-8.6,1.3-12.9C1252.6,1991.7,1251.1,1979.8,1249.1,1968z M1185.2,1976.8
		c-1,0.7-2.1,0.4-3.2,0.4c-42.3,0-84.7,0-127,0c-0.3,0-0.6,0-1,0c-2.8-0.1-3.2-0.4-2.7-3c0.4-1.9,0.9-3.7,1.4-5.6
		c3-9.7,8-18.4,14.6-26.1c1.8-2.1,3.7-3.9,5.9-5.6c9.5-7.3,20-12.6,31.9-14.6c3.1-0.5,6.3-1,9.5-1c11.3-0.3,22.3,1.1,32.9,5.1
		c11.1,4.2,19.9,11.3,27.1,20.6c3.3,4.2,5.5,9,7,14.1c1.3,4.4,2.5,8.9,3.7,13.4C1185.4,1975.2,1185.6,1976,1185.2,1976.8z"/>
	<path class="st2" d="M191,1946.3c-8-21.8-20.6-40.3-38.8-54.8c-22-17.5-47.3-26.1-75.3-27.2c-8-0.3-16,0.1-24,0.7
		c-10.1,0.8-20,2.5-29.6,5.4c-27,8.1-48.3,24.4-65.2,46.5c-15.2,20-22.8,43-25,67.8c-1.4,15.8-0.7,31.6,2.7,47.2
		c8.1,37.2,28.5,65.4,61.8,84.1c17.8,10,37,15.5,57.3,17.6c15.1,1.5,30,0.9,44.9-1.9c33.4-6.1,61-22,82.5-48.3
		c3.8-4.7,7.5-9.5,10.2-15c1.1-2.3,2.4-4.5,2.5-7.3c-3.6-1-7.1-1.8-10.6-2.9c-12.4-3.8-24.7-7.6-37.1-11.4c-3.1-0.9-6.2-1.6-9.2-2.5
		c-1.9-0.5-3.3,0-4.5,1.7c-2.3,3.4-4.9,6.7-7.4,10c-1.4,1.8-2.9,3.4-4.7,4.8c-11,8.8-23.5,14.1-37.4,15.9c-16,2.1-31.6-0.2-46.6-5.8
		c-8.5-3.2-16.1-7.8-22.1-14.7c-7-8.1-12-17.3-14.7-27.7c-0.6-2.3-0.8-4.7-1.1-7.1c-0.1-0.7,0.4-1.3,1.1-1.3
		c1.6-0.1,3.2-0.2,4.8-0.2c62.4,0,124.7,0,187.1,0c1.4,0,2.9,0,4.3,0c0.9,0,1.5-0.5,1.6-1.4c0.2-1.3,0.2-2.5,0.3-3.8
		c0.2-5.4,0.4-10.8,0.6-16.3C199.9,1980.6,197.2,1963.2,191,1946.3z M130.9,1977.2c-1.1,0-2.2,0-3.4,0c-20.5,0-40.9,0-61.4,0
		c-20.8,0-41.6,0-62.4,0c-4.6,0-4.7,0-3.9-4.5c2.9-14.8,10.2-27.1,22.1-36.4c9.1-7.1,19.2-12,30.6-14c3-0.5,6-0.9,9-1
		c13.3-0.4,26.2,1.5,38.2,7.4c19.3,9.4,30.5,24.7,33.3,46C133.5,1976.8,133.2,1977.1,130.9,1977.2z"/>
</g>
</svg>
