<svg width="78" height="62" viewBox="0 0 78 62" fill="none" xmlns="http://www.w3.org/2000/svg">
<path d="M57.6803 49.7729C57.1597 50.207 56.5205 50.4401 55.8677 50.4558C55.4811 50.4641 55.0927 50.3977 54.7234 50.2503C54.2748 50.0706 53.8983 49.7738 53.5928 49.4218C50.6023 53.3513 46.3717 56.2514 41.4828 57.5314C44.209 55.6128 46.4638 52.3053 47.9755 48.1233H52.9473C52.9282 48.0349 52.8899 47.9556 52.8798 47.8662L52.62 45.8711H48.6921C49.4589 43.1147 49.9166 40.0579 50.0032 36.8067H51.4383L51.1448 34.5545H50.0032C49.9622 33.0459 49.8327 31.5825 49.6422 30.1707C48.9319 30.3706 48.1943 30.5678 47.463 30.7651C47.6217 31.9962 47.7384 33.2532 47.7767 34.5545H39.9264L39.4742 36.8067H47.7758C47.681 40.0699 47.1932 43.1507 46.3744 45.8711H36.9896V40.8938L35.8481 41.7001C35.5171 41.937 35.1442 42.0678 34.7613 42.148V45.8711H25.3765C24.9762 44.5385 24.6562 43.1166 24.4218 41.632C24.1784 41.7315 23.9277 41.8319 23.6888 41.9351C23.211 42.1406 22.7843 42.3452 22.3303 42.5507C22.5299 43.6916 22.7652 44.8095 23.0578 45.8711H15.9397V45.8692C15.2987 46.2646 14.6869 46.659 14.1198 47.0599C13.6721 47.3787 13.2646 47.6921 12.8789 48.0026C17.2599 56.3196 25.9199 62 35.8745 62C45.2101 62 53.3877 56.9932 57.9848 49.514L57.6803 49.7729ZM17.2216 48.1233H23.7754C25.2898 52.3053 27.541 55.6128 30.2681 57.5314C24.8513 56.115 20.2286 52.7163 17.2216 48.1233ZM34.7613 57.0495C31.2209 56.4551 28.1327 53.0665 26.1715 48.1233H34.7613V57.0495ZM36.9896 48.1233H45.5793C43.62 53.0638 40.5282 56.4551 36.9896 57.0495V48.1233Z" fill="#E95522"/>
<path d="M77.6259 12.0714C73.9834 9.65045 66.3674 11.359 57.9181 14.6545L43.0728 0L38.0717 0.173252L50.0058 18.0577C45.096 20.3395 40.2326 22.8793 35.9683 25.2265L29.8084 20.5247L27.25 20.8261L33.6114 28.9256L34.1594 39.2543L36.2719 37.7641L37.8009 30.118C42.533 29.0232 47.844 27.6667 53.0156 26.089L55.7992 47.4745L59.6578 44.2537L61.1658 23.3391C69.6616 20.1441 76.4844 16.3225 77.6259 12.0714Z" fill="#E95522"/>
<path d="M42.2165 11.714L40.9874 9.87178C39.3289 9.53818 37.6249 9.35571 35.8724 9.35571C22.8689 9.35571 12.0918 19.0495 10.168 31.6563C11.7681 30.4361 13.3227 29.3634 14.7459 28.4299C15.0833 27.419 15.4653 26.4274 15.9385 25.4865H19.5245C20.8174 24.7336 22.1449 23.9816 23.5417 23.2342H17.2205C20.2256 18.6412 24.8501 15.2435 30.2678 13.8261C28.8163 14.8491 27.5034 16.2747 26.3591 18.0081C26.5387 17.9501 26.7174 17.8883 26.9098 17.8671L29.4682 17.5658C29.4837 17.5649 29.5019 17.5658 29.5156 17.5649C31.0629 15.7983 32.8408 14.6307 34.7601 14.31V20.571L36.2326 21.6962C36.4897 21.557 36.7331 21.4344 36.9884 21.2953V14.31C39.1521 14.6721 41.1461 16.0913 42.8201 18.2588L45.7067 16.8719L42.2165 11.714Z" fill="#E95522"/>
<path d="M30.7193 30.0342L26.7103 24.9307C23.9868 26.3416 20.9461 28.0132 17.7686 30.0148C14.22 32.269 10.4945 34.8714 7.07816 38.1881C5.38228 39.8588 3.75205 41.7157 2.42999 43.9551C1.77625 45.0766 1.20914 46.3041 0.8189 47.633C0.714047 47.9583 0.643841 48.3085 0.563606 48.6476C0.520753 48.8163 0.500694 48.9932 0.468782 49.1665L0.375782 49.794L0.373047 50.5608L0.394017 51.6906C0.491576 53.0517 0.850812 54.5004 1.56564 55.7638C2.26405 57.0383 3.31258 58.0179 4.35564 58.6464C6.47731 59.9025 8.46678 60.108 10.18 60.2103C13.6201 60.3163 16.2605 59.7495 18.1078 59.3791C18.6831 59.2556 19.1673 59.1431 19.5775 59.0464C14.2164 58.7616 10.8766 57.4622 9.08314 56.478C8.57072 56.2154 8.09569 55.9205 7.68996 55.5777C7.50305 55.4311 7.40093 55.3353 7.40093 55.3353L7.43558 55.3325C7.32525 55.2266 7.19669 55.127 7.10369 55.0137C6.29587 54.0378 6.2749 53.1512 6.56119 51.8795C6.61043 51.7486 6.65328 51.6298 6.68884 51.5063L6.90675 50.77L6.91405 50.7488C6.93411 50.6336 6.89399 50.8787 6.89946 50.8464L6.91131 50.8206L6.93137 50.7626L6.97149 50.6511C7.00158 50.5783 7.01799 50.5046 7.05537 50.4281C7.1274 50.2779 7.17664 50.1276 7.26325 49.9756C7.56596 49.3646 7.9799 48.7426 8.49231 48.1251C9.51987 46.8875 10.9103 45.7024 12.4339 44.6195C15.5083 42.453 19.098 40.679 22.5408 39.1962C25.535 37.9116 28.4262 36.8712 31.0357 35.9957L30.7193 30.0342Z" fill="#E95522"/>
</svg>
