<svg width="216" height="44" viewBox="0 0 216 44" fill="none" xmlns="http://www.w3.org/2000/svg">
<path d="M214.993 6.53418C215.02 6.53418 215.047 6.53418 215.074 6.53418C215.074 17.5076 215.074 28.4899 215.074 39.4632C215.038 39.4543 215.011 39.4543 214.975 39.4454C214.787 39.2126 214.85 38.9262 214.85 38.6577C214.85 33.6006 214.85 28.5525 214.85 23.4955C214.85 18.0983 214.85 12.7011 214.85 7.30392C214.859 7.05331 214.796 6.76689 214.993 6.53418Z" fill="white"/>
<path d="M39.5189 44.0002C38.9729 44.0002 38.4359 44.0002 37.8899 44.0002C37.6751 43.9823 37.4603 43.9465 37.2544 43.9376C35.4643 43.857 33.7011 43.5795 31.9557 43.1857C27.3104 42.1385 22.9604 40.3394 18.8073 38.0123C15.8805 36.3743 13.1237 34.4858 10.5639 32.3287C8.12038 30.2701 5.8917 27.9966 4.01208 25.401C3.20653 24.2911 2.48154 23.1275 1.86395 21.9013C0.88834 19.9769 0.226004 17.9541 0.0111904 15.797C0.0111904 15.6986 0.0201387 15.6001 0.0201387 15.5017C-0.00671291 14.9646 -0.00671291 14.4365 0.0201387 13.8995C0.0201387 13.819 0.0111904 13.7295 0.0111904 13.6489C0.109646 12.8702 0.225999 12.1004 0.476615 11.3486C0.834636 10.2835 1.37167 9.31683 2.06086 8.43072C2.87536 7.39246 4.20004 6.20204 5.29201 5.4502C5.1846 5.5755 4.96084 5.81717 4.92504 5.86192C4.78183 6.04093 4.63862 6.21099 4.49541 6.39895C3.82412 7.27611 3.484 8.26961 3.43924 9.37948C3.39449 10.5968 3.68091 11.7245 4.20004 12.8165C4.75497 14.0069 5.52472 15.0541 6.39292 16.0297C7.5744 17.3634 8.91698 18.518 10.3491 19.5742C12.7031 21.3106 15.2271 22.7516 17.8765 23.9957C21.3672 25.6337 24.9832 26.9047 28.7335 27.7818C30.0134 28.0861 31.3023 28.3278 32.6091 28.5068C33.7995 28.6769 34.9899 28.7843 36.1893 28.8559C37.3529 28.9275 38.5075 28.9006 39.6621 28.8201C40.772 28.7395 41.8729 28.5247 42.947 28.2293C45.1667 27.6207 47.2522 26.7167 49.1586 25.401C50.5728 24.4254 51.808 23.2618 52.8194 21.8745C54.0725 20.1649 54.8691 18.2584 55.2629 16.1729C55.433 15.26 55.5225 14.3381 55.5404 13.4072C55.5672 12.0378 55.2719 10.74 54.6543 9.5227C54.6185 9.44214 54.5827 9.37053 54.5469 9.28997C54.529 9.20942 54.2515 8.83349 54.6453 9.20047C56.2027 10.8832 57.3842 12.7807 58.1181 14.9557C58.503 16.0924 58.7536 17.2649 58.87 18.4643C58.9953 19.6905 58.9595 20.9167 58.8879 22.143C58.8431 22.859 58.7805 23.5661 58.682 24.2732C58.1539 28.3009 56.9277 32.0691 54.5648 35.4077C51.8617 39.2296 48.2636 41.861 43.7883 43.2752C42.5979 43.6511 41.3806 43.8928 40.1275 43.9376C39.9127 43.9465 39.7158 43.9823 39.5189 44.0002Z" fill="white"/>
<path d="M30.1552 0C30.2716 0 30.3879 0 30.4953 0C31.095 0.0358022 31.6947 0.0626495 32.2944 0.107402C33.082 0.170056 33.8607 0.24166 34.6394 0.331166C35.3734 0.411721 36.1163 0.501233 36.8502 0.61759C40.0814 1.10987 43.2409 1.87066 46.2483 3.17744C47.6446 3.78608 48.9693 4.51107 50.1776 5.44193C51.0368 6.09532 51.7976 6.84716 52.4331 7.72432C53.5967 9.33542 54.0711 11.1255 53.9189 13.0946C53.8384 14.0882 53.6952 15.0817 53.4356 16.0483C52.7733 18.465 51.5112 20.5236 49.6674 22.2153C47.9221 23.8264 45.8724 24.9541 43.6437 25.7418C42.4264 26.1714 41.1823 26.4847 39.9113 26.6637C39.4996 26.7263 39.0879 26.7532 38.6761 26.78C37.6021 26.8427 36.528 26.8248 35.4629 26.7711C34.6752 26.7263 33.8965 26.6637 33.1178 26.5473C32.6256 26.4757 31.6231 26.3683 31.5067 26.2878C31.5515 26.2788 32.2675 26.1446 32.5898 26.0908C33.8876 25.8671 35.1586 25.527 36.3579 24.972C37.441 24.4618 38.4166 23.7995 39.1953 22.8776C40.0993 21.8035 40.5737 20.5594 40.6542 19.1542C40.7437 17.5968 40.3678 16.1199 39.7502 14.7057C39.0521 13.1036 38.0854 11.6805 36.9576 10.3647C34.8811 7.95703 32.4018 6.04162 29.6271 4.51108C27.1747 3.15955 24.5701 2.19288 21.8312 1.59319C20.8556 1.37838 19.8621 1.22623 18.8686 1.11882C18.3852 1.06512 17.9019 1.06511 17.4186 1.00246C17.338 0.993507 17.2575 0.975605 17.168 0.912952C17.4991 0.850298 17.8214 0.778696 18.1525 0.724992C19.3251 0.545981 20.4976 0.375925 21.679 0.259568C22.8426 0.143211 24.0151 0.0626517 25.1877 0.00894836C25.3846 0.00894836 25.5904 0.00894836 25.7873 0.00894836C26.0469 0.00894836 26.2975 0.00894836 26.5571 0.00894836C27.3626 0.00894836 28.1682 0.00894836 28.9737 0.00894836C29.1707 0.00894836 29.3765 0.00894836 29.5734 0.00894836C29.7524 -2.18533e-06 29.9583 0 30.1552 0Z" fill="white"/>
<path d="M77.6731 30.6819C77.6731 33.4566 77.6731 36.2224 77.6731 38.997C77.6731 39.5162 77.7268 39.4624 77.2255 39.4624C75.5339 39.4624 73.8512 39.4624 72.1595 39.4624C72.0611 39.4624 71.9626 39.4624 71.8552 39.4624C71.7567 39.4624 71.6941 39.4177 71.6941 39.3103C71.6941 39.1671 71.6941 39.0239 71.6941 38.8807C71.6941 33.4119 71.6941 27.9341 71.6941 22.4653C71.6941 21.7762 71.7836 21.8746 71.1123 21.8746C69.9845 21.8657 68.8478 21.8746 67.7201 21.8746C67.6037 21.8746 67.4873 21.8746 67.3799 21.8746C67.2725 21.8746 67.2278 21.812 67.2188 21.7135C67.2099 21.6419 67.2188 21.5703 67.2188 21.4987C67.2188 19.986 67.2188 18.4734 67.2188 16.9518C67.2188 16.8981 67.2188 16.8355 67.2188 16.7818C67.2278 16.6385 67.2636 16.6027 67.3978 16.5938C67.5142 16.5848 67.6305 16.5938 67.738 16.5938C68.9015 16.5938 70.0561 16.5938 71.2197 16.5938C71.3361 16.5938 71.4524 16.5938 71.5598 16.5848C71.6404 16.5759 71.6941 16.5311 71.6941 16.4506C71.6941 16.3342 71.703 16.2179 71.703 16.1105C71.703 15.3139 71.703 14.5083 71.703 13.7117C71.703 13.121 71.7657 12.5481 71.9 11.9664C72.0342 11.3935 72.1953 10.8296 72.3922 10.2837C72.8219 9.09323 73.5827 8.14447 74.5762 7.37472C75.8561 6.39016 77.2971 5.88893 78.9172 5.87103C79.7943 5.86208 80.6625 5.87103 81.5307 5.94264C82.4885 6.01424 83.4283 6.19325 84.3144 6.58707C84.3412 6.59602 84.3681 6.60498 84.3949 6.62288C84.5292 6.69448 84.744 6.68553 84.8067 6.81978C84.8872 6.98984 84.7977 7.17781 84.7529 7.35682C84.5829 8.03706 84.3591 8.6994 84.1443 9.36174C83.9205 10.042 83.6878 10.7133 83.5267 11.4114C83.482 11.6083 83.4104 11.6083 83.2582 11.5636C83.0344 11.5009 82.8196 11.4383 82.6048 11.3667C81.9156 11.1429 81.2175 11.0444 80.4925 11.0802C80.0897 11.0981 79.6959 11.1877 79.3289 11.3398C78.4339 11.7157 77.9326 12.4049 77.7626 13.3358C77.7089 13.6133 77.682 13.8997 77.682 14.1861C77.691 14.8574 77.682 15.5287 77.682 16.2C77.682 16.2716 77.682 16.3432 77.682 16.4148C77.682 16.5132 77.7268 16.5759 77.8342 16.5848C77.9505 16.5938 78.0669 16.5848 78.1743 16.5848C80.1345 16.5848 82.0946 16.5848 84.0548 16.5848C84.6276 16.5848 84.5739 16.5043 84.5739 17.1129C84.5739 18.5719 84.5739 20.0308 84.5739 21.4897C84.5739 21.9015 84.5471 21.8657 84.198 21.8657C82.1931 21.8657 80.1882 21.8657 78.1832 21.8657C77.6104 21.8657 77.6731 21.812 77.6731 22.3579C77.6731 25.1416 77.6731 27.9162 77.6731 30.6819Z" fill="white"/>
<path d="M166.158 32.7312C166.311 32.6685 166.302 32.5521 166.338 32.4626C167.188 30.2966 168.02 28.1306 168.871 25.9556C170.025 22.975 171.189 19.9945 172.343 17.014C172.54 16.5127 172.433 16.5843 172.979 16.5843C174.849 16.5843 176.729 16.5843 178.6 16.5843C178.689 16.5843 178.77 16.5843 178.859 16.5843C178.976 16.5933 179.02 16.6381 178.976 16.7455C178.868 17.0229 178.752 17.3004 178.636 17.5779C175.691 24.7294 172.755 31.8898 169.81 39.0413C169.613 39.5246 169.712 39.453 169.202 39.453C167.197 39.453 165.192 39.453 163.196 39.453C163.142 39.453 163.08 39.4441 163.026 39.453C162.838 39.4799 162.748 39.3993 162.677 39.2203C162.292 38.2715 161.898 37.3228 161.504 36.3651C158.855 29.9207 156.205 23.4852 153.556 17.0408C153.332 16.5038 153.359 16.5754 153.86 16.5754C155.722 16.5754 157.584 16.5754 159.446 16.5754C159.517 16.5754 159.589 16.5844 159.66 16.5754C159.857 16.5485 159.938 16.656 160.001 16.8171C160.26 17.5152 160.538 18.2044 160.806 18.8936C162.551 23.4047 164.306 27.9157 166.051 32.4268C166.078 32.5342 166.114 32.6237 166.158 32.7312Z" fill="white"/>
<path d="M33.298 10.571C31.8927 9.89079 30.4069 9.45222 28.8585 9.17475C27.3906 8.91518 25.9138 8.80778 24.419 8.86148C22.0919 8.95099 19.8184 9.34481 17.6524 10.213C16.5336 10.6605 15.4774 11.2244 14.5466 11.9942C14.0185 12.4327 13.5441 12.925 13.1682 13.5068C12.6222 14.3571 12.3358 15.288 12.3895 16.3083C12.4342 17.0244 12.6311 17.7136 12.9444 18.358C13.0876 18.6534 13.2487 18.9398 13.4009 19.2262C13.4367 19.3068 13.5262 19.3873 13.4009 19.3336C13.374 19.3247 13.3472 19.3157 13.3472 19.3068C13.3203 19.2978 13.2935 19.2799 13.2487 19.262C11.029 17.8568 9.4716 16.4784 8.48704 15.4849C7.66359 14.6614 7.0639 13.9185 6.49107 13.0235C5.95403 12.1911 5.52441 11.305 5.30065 10.3294C4.84417 8.3513 5.29169 6.62384 6.71483 5.1649C7.49353 4.3683 8.43333 3.79547 9.4537 3.34794C10.5725 2.85566 11.754 2.57819 12.9534 2.39023C14.3944 2.17542 15.8354 2.15752 17.2765 2.24702C18.7533 2.32758 20.2033 2.56924 21.6354 2.93621C24.8307 3.74176 27.7755 5.09329 30.4248 7.05346C31.9375 8.17228 33.289 9.46117 34.4884 10.9112C34.5421 10.9738 34.748 11.2513 34.7927 11.3139C34.8285 11.3855 33.7455 10.7858 33.298 10.571Z" fill="white"/>
<path d="M214.994 6.53377C214.994 8.71771 214.994 10.9016 214.994 13.0945C214.994 21.6781 214.994 30.2706 214.994 38.8542C214.994 39.0511 214.985 39.257 214.985 39.4539C214.869 39.4628 214.761 39.4718 214.645 39.4718C212.944 39.4718 211.244 39.4718 209.534 39.4718C209.436 39.4718 209.337 39.4718 209.23 39.4718C209.149 39.4718 209.096 39.427 209.096 39.3465C209.096 39.248 209.087 39.1496 209.087 39.0511C209.087 28.3552 209.087 17.6503 209.087 6.95444C209.087 6.52482 209.051 6.53377 209.498 6.53377C211.217 6.53377 212.935 6.53377 214.645 6.53377C214.77 6.51587 214.878 6.52482 214.994 6.53377Z" fill="white"/>
<path d="M150.149 28.0249C150.149 31.6857 150.149 35.3375 150.149 38.9983C150.149 39.5174 150.203 39.4637 149.701 39.4637C147.974 39.4637 146.237 39.4637 144.51 39.4637C144.412 39.4637 144.313 39.4637 144.206 39.4637C144.125 39.4637 144.071 39.419 144.071 39.3295C144.071 39.231 144.062 39.1325 144.062 39.0251C144.062 31.6946 144.062 24.3641 144.062 17.0336C144.062 16.9352 144.062 16.8367 144.062 16.7293C144.062 16.6488 144.107 16.5951 144.188 16.5861C144.277 16.5772 144.358 16.5772 144.447 16.5772C146.22 16.5772 148.001 16.5772 149.773 16.5772C150.158 16.5772 150.149 16.5682 150.149 16.9531C150.149 20.6497 150.149 24.3373 150.149 28.0249Z" fill="white"/>
<path d="M143.613 9.86362C143.613 9.83677 143.613 9.80991 143.613 9.77411C143.542 8.95066 143.882 8.27937 144.419 7.67968C144.714 7.34851 145.063 7.07105 145.448 6.84729C146.298 6.37291 147.202 6.2476 148.133 6.53402C149.44 6.94574 150.326 7.79605 150.684 9.12968C150.881 9.85467 150.792 10.5707 150.469 11.2599C150.237 11.7611 149.914 12.1908 149.512 12.5667C149.055 12.9874 148.527 13.238 147.91 13.3185C147.569 13.3633 147.229 13.3722 146.88 13.3812C146.361 13.3901 145.896 13.2559 145.448 13.0053C144.848 12.6651 144.374 12.1997 144.025 11.6179C143.748 11.1525 143.577 10.6602 143.604 10.1142C143.613 10.0337 143.613 9.94417 143.613 9.86362Z" fill="white"/>
<path d="M138.244 38.9534C138.244 33.6189 138.244 28.2933 138.244 22.9588C138.244 21.5983 138.244 20.2468 138.244 18.8863C138.244 14.9122 138.244 10.9382 138.244 6.96415C138.244 6.45397 138.297 6.51663 137.778 6.50768C136.105 6.50768 134.431 6.50768 132.757 6.50768C132.193 6.50768 132.265 6.43608 132.265 7.01786C132.265 10.9203 132.265 14.8227 132.265 18.7252C132.265 18.8773 132.301 19.0384 132.238 19.1817C132.023 19.1906 131.934 19.0116 131.799 18.8952C131.683 18.7878 131.593 18.6625 131.477 18.5462C131.298 18.3672 131.128 18.1702 130.922 18.0091C130.143 17.3915 129.311 16.8814 128.371 16.5502C127.557 16.2638 126.715 16.1027 125.856 16.0221C124.898 15.9326 123.941 15.9684 122.992 16.1027C122.061 16.2369 121.193 16.5412 120.334 16.9172C118.785 17.6153 117.434 18.573 116.351 19.8977C114.435 22.2159 113.54 24.9011 113.504 27.8905C113.495 28.893 113.603 29.8865 113.818 30.8711C114.194 32.5896 114.865 34.1917 115.894 35.6238C117.103 37.3155 118.66 38.5864 120.611 39.3383C121.497 39.6784 122.419 39.8753 123.35 40.0096C124.657 40.1975 125.946 40.1796 127.235 39.8843C128.81 39.5173 130.215 38.8192 131.343 37.6198C131.549 37.405 131.772 37.1991 131.987 36.9932C132.041 36.9485 132.104 36.9037 132.166 36.8769C132.211 36.85 132.256 36.8769 132.256 36.9216C132.265 37.0022 132.265 37.0917 132.265 37.1812C132.265 37.7809 132.265 38.3806 132.265 38.9803C132.265 39.0787 132.265 39.1772 132.265 39.2846C132.274 39.4368 132.292 39.4636 132.435 39.4725C132.551 39.4725 132.668 39.4725 132.775 39.4725C134.422 39.4725 136.069 39.4725 137.716 39.4725C138.315 39.4636 138.244 39.5442 138.244 38.9534ZM131.665 31.1754C131.03 32.5896 129.947 33.5473 128.568 34.1828C125.588 35.5612 121.936 34.505 120.307 31.5155C119.806 30.5936 119.546 29.609 119.483 28.5708C119.474 28.3828 119.483 28.2038 119.483 28.0158C119.465 26.9776 119.636 25.9662 120.074 25.0174C120.951 23.0841 122.464 21.9205 124.523 21.464C125.874 21.1687 127.208 21.285 128.47 21.84C130.457 22.7082 131.674 24.2387 132.184 26.3242C132.578 27.989 132.363 29.618 131.665 31.1754Z" fill="white"/>
<path d="M204.379 25.2498C204.066 23.3971 203.287 21.7412 202.186 20.2286C201.81 19.7094 201.372 19.235 200.897 18.7965C199.591 17.606 198.042 16.8631 196.351 16.3977C195.473 16.1561 194.578 16.0576 193.683 16.0039C192.511 15.9323 191.338 15.9323 190.175 16.165C187.319 16.7199 184.992 18.1431 183.202 20.4344C181.788 22.2514 180.991 24.319 180.786 26.6103C180.732 27.1831 180.741 27.756 180.732 28.3199C180.705 30.0384 181.081 31.6584 181.752 33.2337C182.853 35.8025 184.688 37.6642 187.203 38.8636C188.922 39.6781 190.739 40.0719 192.636 40.1435C193.728 40.1883 194.811 40.0898 195.885 39.884C197.183 39.6333 198.427 39.2216 199.591 38.5772C201.336 37.6016 202.714 36.2321 203.806 34.5673C203.923 34.3883 204.021 34.1914 204.111 34.0035C204.173 33.8781 204.245 33.7528 204.236 33.5917C203.806 33.4754 203.386 33.368 202.956 33.2337C201.846 32.9025 200.745 32.5535 199.635 32.2133C199.474 32.1596 199.304 32.1238 199.134 32.0791C198.964 32.0343 198.83 32.0612 198.731 32.2223C198.606 32.4103 198.454 32.5803 198.32 32.7683C198.006 33.2248 197.604 33.5828 197.147 33.8781C197.004 33.9676 196.861 34.0661 196.709 34.1467C195.966 34.5942 195.16 34.8806 194.292 34.9791C193.021 35.1223 191.777 34.997 190.56 34.63C189.521 34.3167 188.626 33.7707 187.955 32.9115C187.275 32.0343 186.908 31.0229 186.657 29.9578C186.836 29.8593 187.006 29.9041 187.176 29.9041C192.735 29.9041 198.284 29.9041 203.842 29.9041C203.941 29.9041 204.039 29.9041 204.146 29.9041C204.442 29.8951 204.442 29.8951 204.487 29.5908C204.531 29.206 204.567 28.8211 204.603 28.4362C204.692 27.3711 204.558 26.306 204.379 25.2498ZM198.66 26.0375C198.57 26.1001 198.472 26.0733 198.373 26.0733C194.587 26.0733 190.792 26.0733 187.006 26.0733C186.979 26.0733 186.952 26.0733 186.917 26.0733C186.666 26.0643 186.63 26.0375 186.675 25.8047C186.711 25.6347 186.756 25.4736 186.8 25.3035C187.069 24.4353 187.516 23.6566 188.107 22.9674C188.268 22.7795 188.438 22.6184 188.635 22.4662C189.485 21.8128 190.425 21.3384 191.49 21.1594C191.768 21.1147 192.054 21.0699 192.341 21.0699C193.352 21.0431 194.337 21.1684 195.285 21.5264C196.279 21.9023 197.067 22.5378 197.711 23.3702C198.006 23.7461 198.203 24.1757 198.338 24.6322C198.454 25.026 198.561 25.4288 198.669 25.8316C198.678 25.8943 198.696 25.9659 198.66 26.0375Z" fill="white"/>
<path d="M109.672 23.3066C108.956 21.3554 107.828 19.6995 106.199 18.4017C104.23 16.8353 101.965 16.0656 99.459 15.9671C98.743 15.9403 98.0269 15.9761 97.3109 16.0298C96.4069 16.1014 95.5208 16.2536 94.6615 16.5131C92.2449 17.2381 90.3384 18.6971 88.8258 20.6751C87.4653 22.4652 86.7851 24.5239 86.5881 26.7436C86.4628 28.1578 86.5255 29.572 86.8298 30.9683C87.5548 34.2979 89.3807 36.8219 92.3612 38.4957C93.9544 39.3907 95.6729 39.883 97.4899 40.071C98.8414 40.2052 100.175 40.1515 101.509 39.9009C104.498 39.3549 106.969 37.9318 108.893 35.5778C109.233 35.1571 109.564 34.7275 109.806 34.2352C109.904 34.0293 110.021 33.8324 110.03 33.5818C109.707 33.4923 109.394 33.4207 109.081 33.3222C107.971 32.9821 106.87 32.642 105.76 32.3019C105.483 32.2213 105.205 32.1587 104.937 32.0781C104.767 32.0334 104.641 32.0781 104.534 32.2303C104.328 32.5346 104.095 32.83 103.872 33.1253C103.746 33.2864 103.612 33.4297 103.451 33.555C102.466 34.3426 101.348 34.817 100.103 34.9781C98.6714 35.1661 97.2751 34.9602 95.9325 34.459C95.1717 34.1725 94.4915 33.7608 93.9544 33.1432C93.3279 32.4182 92.8804 31.5948 92.6387 30.6639C92.585 30.4581 92.5671 30.2433 92.5403 30.0284C92.5313 29.9658 92.5761 29.9121 92.6387 29.9121C92.7819 29.9031 92.9251 29.8942 93.0683 29.8942C98.6535 29.8942 104.23 29.8942 109.815 29.8942C109.94 29.8942 110.074 29.8942 110.2 29.8942C110.28 29.8942 110.334 29.8494 110.343 29.7689C110.361 29.6525 110.361 29.5451 110.37 29.4288C110.388 28.9454 110.406 28.4621 110.423 27.9698C110.468 26.3766 110.227 24.8192 109.672 23.3066ZM104.292 26.0723C104.194 26.0723 104.095 26.0723 103.988 26.0723C102.153 26.0723 100.327 26.0723 98.4924 26.0723C96.6307 26.0723 94.7689 26.0723 92.9072 26.0723C92.4955 26.0723 92.4865 26.0723 92.5582 25.6695C92.8177 24.3448 93.4711 23.2439 94.5362 22.4115C95.3507 21.776 96.2547 21.3375 97.2751 21.1585C97.5436 21.1137 97.8121 21.0779 98.0806 21.069C99.2711 21.0332 100.426 21.2032 101.5 21.7313C103.227 22.5726 104.23 23.9421 104.48 25.8485C104.525 26.0365 104.498 26.0633 104.292 26.0723Z" fill="white"/>
</svg>
