<svg width="262" height="54" viewBox="0 0 262 54" fill="none" xmlns="http://www.w3.org/2000/svg">
<path d="M260.981 7.93207C261.014 7.93207 261.046 7.93207 261.079 7.93207C261.079 21.2527 261.079 34.5842 261.079 47.9048C261.035 47.8939 261.003 47.8939 260.959 47.883C260.731 47.6006 260.807 47.2529 260.807 46.9269C260.807 40.7881 260.807 34.6602 260.807 28.5214C260.807 21.9698 260.807 15.4181 260.807 8.86646C260.818 8.56224 260.742 8.21456 260.981 7.93207Z" fill="white"/>
<path d="M47.9721 53.4119C47.3094 53.4119 46.6575 53.4119 45.9947 53.4119C45.7339 53.3902 45.4732 53.3467 45.2233 53.3358C43.0502 53.2381 40.9098 52.9012 38.7911 52.4232C33.1521 51.1519 27.8717 48.9681 22.8303 46.1432C19.2774 44.1548 15.931 41.8623 12.8235 39.2438C9.85736 36.7448 7.15195 33.9851 4.87028 30.8342C3.89242 29.4869 3.01235 28.0745 2.26265 26.586C1.07836 24.25 0.274346 21.7944 0.013584 19.176C0.013584 19.0564 0.0244465 18.9369 0.0244465 18.8174C-0.00814883 18.1655 -0.00814883 17.5245 0.0244465 16.8726C0.0244465 16.7748 0.013584 16.6661 0.013584 16.5683C0.1331 15.6231 0.274341 14.6887 0.578564 13.776C1.01317 12.483 1.66508 11.3096 2.50169 10.234C3.49041 8.97362 5.09844 7.52857 6.42399 6.61591C6.29361 6.76802 6.02198 7.06137 5.97852 7.1157C5.80468 7.333 5.63084 7.53944 5.457 7.7676C4.64211 8.83238 4.22924 10.0384 4.17491 11.3857C4.12058 12.8633 4.46827 14.2323 5.09844 15.5579C5.77208 17.0029 6.70648 18.2742 7.76039 19.4585C9.19459 21.0773 10.8244 22.4789 12.5628 23.761C15.4203 25.8689 18.4843 27.6181 21.7003 29.1284C25.9377 31.1167 30.3272 32.6596 34.8797 33.7243C36.4334 34.0937 37.998 34.3871 39.5843 34.6044C41.0293 34.8108 42.4744 34.9412 43.9303 35.0281C45.3428 35.1151 46.7444 35.0825 48.146 34.9847C49.4932 34.8869 50.8297 34.6261 52.1335 34.2676C54.828 33.5288 57.3596 32.4314 59.6739 30.8342C61.3905 29.6499 62.8899 28.2375 64.1177 26.5534C65.6388 24.4781 66.6058 22.1639 67.0838 19.6323C67.2903 18.524 67.3989 17.4049 67.4207 16.275C67.4533 14.6126 67.0947 13.0372 66.345 11.5595C66.3016 11.4617 66.2581 11.3748 66.2146 11.277C66.1929 11.1792 65.8561 10.7229 66.3342 11.1684C68.2247 13.211 69.6589 15.5144 70.5498 18.1546C71.017 19.5345 71.3212 20.9578 71.4625 22.4138C71.6146 23.9023 71.5711 25.3908 71.4842 26.8793C71.4299 27.7485 71.3538 28.6069 71.2343 29.4652C70.5933 34.3545 69.1048 38.9287 66.2364 42.9814C62.9551 47.6208 58.5873 50.8151 53.1548 52.5318C51.7097 52.9881 50.2321 53.2815 48.711 53.3358C48.4502 53.3467 48.2112 53.3902 47.9721 53.4119Z" fill="#E95522"/>
<path d="M36.6071 0C36.7483 0 36.8896 0 37.0199 0C37.7479 0.0434604 38.4759 0.0760504 39.2038 0.130376C40.1599 0.206432 41.1052 0.293352 42.0505 0.402003C42.9414 0.499789 43.8432 0.608448 44.7342 0.749695C48.6565 1.34728 52.4918 2.27081 56.1425 3.85711C57.8375 4.59594 59.4455 5.476 60.9123 6.60597C61.9553 7.39913 62.8789 8.31179 63.6503 9.37657C65.0628 11.3323 65.6386 13.5053 65.4539 15.8956C65.3561 17.1017 65.1823 18.3077 64.8672 19.4811C64.0632 22.4147 62.5312 24.9137 60.293 26.9672C58.1743 28.9229 55.6862 30.2919 52.9808 31.248C51.5031 31.7696 49.9929 32.1498 48.45 32.3671C47.9502 32.4432 47.4504 32.4758 46.9506 32.5084C45.6468 32.5844 44.343 32.5627 43.0501 32.4975C42.0939 32.4432 41.1487 32.3671 40.2034 32.2259C39.6058 32.139 38.3889 32.0086 38.2477 31.9108C38.302 31.8999 39.1712 31.737 39.5624 31.6718C41.1378 31.4001 42.6807 30.9873 44.1366 30.3136C45.4513 29.6943 46.6355 28.8903 47.5808 27.7712C48.6782 26.4674 49.254 24.9571 49.3518 23.2513C49.4605 21.3608 49.0041 19.568 48.2544 17.8514C47.407 15.9065 46.2335 14.1789 44.8645 12.5818C42.3438 9.65907 39.3342 7.33395 35.966 5.47601C32.989 3.83538 29.8272 2.66194 26.5025 1.93398C25.3182 1.67322 24.1122 1.48852 22.9062 1.35814C22.3195 1.29295 21.7327 1.29294 21.146 1.21689C21.0482 1.20602 20.9504 1.18429 20.8418 1.10824C21.2438 1.03218 21.6349 0.945261 22.037 0.88007C23.4603 0.662768 24.8836 0.456337 26.3178 0.315091C27.7303 0.173844 29.1536 0.0760531 30.5769 0.0108624C30.816 0.0108624 31.0659 0.0108624 31.3049 0.0108624C31.62 0.0108624 31.9242 0.0108624 32.2393 0.0108624C33.2171 0.0108624 34.195 0.0108624 35.1729 0.0108624C35.4119 0.0108624 35.6618 0.0108624 35.9008 0.0108624C36.1181 -2.65319e-06 36.368 0 36.6071 0Z" fill="#E95522"/>
<path d="M94.291 37.2455C94.291 40.6137 94.291 43.971 94.291 47.3392C94.291 47.9694 94.3562 47.9042 93.7477 47.9042C91.6942 47.9042 89.6516 47.9042 87.5981 47.9042C87.4785 47.9042 87.359 47.9042 87.2287 47.9042C87.1091 47.9042 87.0331 47.8498 87.0331 47.7195C87.0331 47.5456 87.0331 47.3718 87.0331 47.1979C87.0331 40.5594 87.0331 33.9099 87.0331 27.2713C87.0331 26.4347 87.1417 26.5542 86.3268 26.5542C84.9578 26.5434 83.578 26.5542 82.209 26.5542C82.0677 26.5542 81.9265 26.5542 81.7961 26.5542C81.6657 26.5542 81.6114 26.4782 81.6005 26.3587C81.5897 26.2717 81.6005 26.1848 81.6005 26.0979C81.6005 24.2617 81.6005 22.4255 81.6005 20.5784C81.6005 20.5132 81.6005 20.4372 81.6005 20.372C81.6114 20.1982 81.6549 20.1547 81.8178 20.1438C81.9591 20.133 82.1003 20.1438 82.2307 20.1438C83.6432 20.1438 85.0448 20.1438 86.4572 20.1438C86.5985 20.1438 86.7397 20.1438 86.8701 20.133C86.9679 20.1221 87.0331 20.0678 87.0331 19.97C87.0331 19.8287 87.0439 19.6875 87.0439 19.5571C87.0439 18.5901 87.0439 17.6123 87.0439 16.6453C87.0439 15.9282 87.12 15.2328 87.283 14.5266C87.446 13.8312 87.6415 13.1467 87.8806 12.4839C88.4021 11.0389 89.3256 9.88718 90.5316 8.95278C92.0854 7.75762 93.8346 7.14917 95.8012 7.12744C96.866 7.11657 97.9199 7.12744 98.9738 7.21436C100.136 7.30129 101.277 7.51858 102.353 7.99665C102.385 8.00751 102.418 8.01838 102.451 8.04011C102.614 8.12703 102.874 8.11616 102.95 8.27914C103.048 8.48557 102.94 8.71374 102.885 8.93104C102.679 9.75679 102.407 10.5608 102.146 11.3648C101.875 12.1906 101.592 13.0055 101.397 13.8529C101.342 14.092 101.255 14.092 101.071 14.0376C100.799 13.9616 100.538 13.8855 100.278 13.7986C99.441 13.527 98.5935 13.4075 97.7135 13.4509C97.2245 13.4727 96.7465 13.5813 96.301 13.766C95.2145 14.2223 94.6061 15.059 94.3996 16.1889C94.3344 16.5258 94.3018 16.8734 94.3018 17.2211C94.3127 18.036 94.3018 18.8509 94.3018 19.6658C94.3018 19.7527 94.3018 19.8396 94.3018 19.9265C94.3018 20.046 94.3562 20.1221 94.4865 20.133C94.6278 20.1438 94.769 20.133 94.8994 20.133C97.2789 20.133 99.6583 20.133 102.038 20.133C102.733 20.133 102.668 20.0352 102.668 20.774C102.668 22.545 102.668 24.316 102.668 26.087C102.668 26.5868 102.635 26.5434 102.212 26.5434C99.7778 26.5434 97.3441 26.5434 94.9103 26.5434C94.2149 26.5434 94.291 26.4782 94.291 27.1409C94.291 30.52 94.291 33.8882 94.291 37.2455Z" fill="white"/>
<path d="M201.701 39.733C201.886 39.657 201.875 39.5157 201.919 39.4071C202.951 36.7777 203.961 34.1484 204.993 31.5081C206.395 27.8901 207.807 24.272 209.209 20.6539C209.448 20.0455 209.318 20.1324 209.98 20.1324C212.251 20.1324 214.533 20.1324 216.804 20.1324C216.912 20.1324 217.01 20.1324 217.119 20.1324C217.26 20.1432 217.314 20.1976 217.26 20.3279C217.13 20.6648 216.988 21.0016 216.847 21.3384C213.273 30.0196 209.709 38.7117 206.134 47.3929C205.895 47.9796 206.015 47.8927 205.395 47.8927C202.962 47.8927 200.528 47.8927 198.105 47.8927C198.04 47.8927 197.964 47.8818 197.898 47.8927C197.67 47.9253 197.562 47.8275 197.475 47.6102C197.008 46.4585 196.529 45.3068 196.051 44.1442C192.835 36.3214 189.619 28.5094 186.403 20.6865C186.132 20.0346 186.164 20.1215 186.773 20.1215C189.033 20.1215 191.292 20.1215 193.552 20.1215C193.639 20.1215 193.726 20.1324 193.813 20.1215C194.052 20.0889 194.15 20.2193 194.226 20.4149C194.541 21.2624 194.878 22.099 195.204 22.9356C197.323 28.4116 199.452 33.8876 201.571 39.3636C201.603 39.494 201.647 39.6026 201.701 39.733Z" fill="white"/>
<path d="M40.4191 12.8318C38.7133 12.006 36.9097 11.4736 35.03 11.1368C33.2481 10.8217 31.4554 10.6914 29.6409 10.7565C26.816 10.8652 24.0563 11.3433 21.4269 12.3972C20.0688 12.9404 18.7867 13.6249 17.6567 14.5593C17.0157 15.0917 16.4398 15.6893 15.9835 16.3955C15.3207 17.4277 14.973 18.5577 15.0382 19.7963C15.0926 20.6655 15.3316 21.5021 15.7119 22.2844C15.8857 22.643 16.0813 22.9906 16.266 23.3383C16.3095 23.4361 16.4181 23.5339 16.266 23.4687C16.2334 23.4579 16.2008 23.447 16.2008 23.4361C16.1682 23.4252 16.1356 23.4035 16.0813 23.3818C13.3867 21.676 11.4962 20.0027 10.3011 18.7967C9.30147 17.7971 8.57351 16.8953 7.87814 15.8088C7.22623 14.7984 6.70471 13.7227 6.43308 12.5384C5.87896 10.1372 6.42222 8.04027 8.14977 6.26925C9.09503 5.30226 10.2359 4.6069 11.4745 4.06365C12.8326 3.46607 14.2668 3.12924 15.7227 2.90107C17.472 2.64031 19.2213 2.61858 20.9706 2.72723C22.7633 2.82502 24.5235 3.11837 26.2619 3.56384C30.1407 4.5417 33.7153 6.18233 36.9314 8.56179C38.7676 9.91993 40.4082 11.4845 41.8642 13.2447C41.9294 13.3207 42.1793 13.6575 42.2336 13.7336C42.277 13.8205 40.9624 13.0925 40.4191 12.8318Z" fill="#E95522"/>
<path d="M260.982 7.93119C260.982 10.5823 260.982 13.2333 260.982 15.8953C260.982 26.3149 260.982 36.7454 260.982 47.1651C260.982 47.4041 260.971 47.654 260.971 47.893C260.83 47.9039 260.7 47.9147 260.559 47.9147C258.494 47.9147 256.43 47.9147 254.355 47.9147C254.235 47.9147 254.116 47.9147 253.985 47.9147C253.887 47.9147 253.822 47.8604 253.822 47.7626C253.822 47.6431 253.811 47.5236 253.811 47.4041C253.811 34.4203 253.811 21.4256 253.811 8.44184C253.811 7.92032 253.768 7.93119 254.311 7.93119C256.397 7.93119 258.483 7.93119 260.559 7.93119C260.711 7.90946 260.841 7.92032 260.982 7.93119Z" fill="white"/>
<path d="M182.265 34.0189C182.265 38.4627 182.265 42.8957 182.265 47.3395C182.265 47.9697 182.33 47.9045 181.722 47.9045C179.625 47.9045 177.517 47.9045 175.42 47.9045C175.301 47.9045 175.181 47.9045 175.051 47.9045C174.953 47.9045 174.888 47.8501 174.888 47.7415C174.888 47.622 174.877 47.5024 174.877 47.3721C174.877 38.4735 174.877 29.575 174.877 20.6765C174.877 20.557 174.877 20.4375 174.877 20.3071C174.877 20.2093 174.931 20.1441 175.029 20.1333C175.138 20.1224 175.236 20.1224 175.344 20.1224C177.495 20.1224 179.658 20.1224 181.809 20.1224C182.276 20.1224 182.265 20.1115 182.265 20.5787C182.265 25.066 182.265 29.5424 182.265 34.0189Z" fill="white"/>
<path d="M174.333 11.9731C174.333 11.9405 174.333 11.9079 174.333 11.8644C174.246 10.8648 174.659 10.0499 175.31 9.32198C175.669 8.91997 176.093 8.58316 176.56 8.31153C177.592 7.73568 178.69 7.58357 179.819 7.93126C181.406 8.43105 182.481 9.46324 182.916 11.0821C183.155 11.9622 183.046 12.8314 182.655 13.668C182.373 14.2765 181.982 14.798 181.493 15.2543C180.939 15.765 180.298 16.0692 179.548 16.167C179.135 16.2213 178.722 16.2322 178.298 16.2431C177.668 16.2539 177.103 16.0909 176.56 15.7867C175.832 15.3738 175.256 14.8089 174.832 14.1026C174.496 13.5376 174.289 12.9401 174.322 12.2773C174.333 12.1795 174.333 12.0709 174.333 11.9731Z" fill="white"/>
<path d="M167.817 47.2853C167.817 40.8097 167.817 34.3449 167.817 27.8693C167.817 26.2178 167.817 24.5772 167.817 22.9257C167.817 18.1016 167.817 13.2775 167.817 8.45338C167.817 7.83407 167.882 7.91013 167.252 7.89926C165.22 7.89926 163.188 7.89926 161.157 7.89926C160.472 7.89926 160.559 7.81235 160.559 8.51858C160.559 13.2558 160.559 17.9929 160.559 22.7301C160.559 22.9148 160.602 23.1104 160.526 23.2842C160.266 23.2951 160.157 23.0778 159.994 22.9366C159.853 22.8062 159.744 22.6541 159.603 22.5128C159.386 22.2955 159.179 22.0565 158.929 21.8609C157.984 21.1112 156.974 20.4919 155.833 20.0899C154.844 19.7422 153.823 19.5467 152.78 19.4489C151.617 19.3402 150.454 19.3837 149.303 19.5467C148.173 19.7096 147.119 20.079 146.076 20.5354C144.196 21.3829 142.556 22.5454 141.241 24.1535C138.916 26.9675 137.829 30.227 137.786 33.856C137.775 35.0729 137.905 36.2789 138.166 37.4741C138.622 39.5602 139.437 41.505 140.687 43.2434C142.154 45.2969 144.044 46.8398 146.413 47.7524C147.488 48.1653 148.607 48.4044 149.737 48.5673C151.324 48.7955 152.888 48.7738 154.453 48.4152C156.365 47.9698 158.071 47.1223 159.44 45.6664C159.69 45.4056 159.961 45.1557 160.222 44.9058C160.287 44.8515 160.363 44.7971 160.44 44.7645C160.494 44.7319 160.548 44.7645 160.548 44.8189C160.559 44.9167 160.559 45.0253 160.559 45.134C160.559 45.8619 160.559 46.5899 160.559 47.3178C160.559 47.4374 160.559 47.5569 160.559 47.6873C160.57 47.872 160.592 47.9046 160.765 47.9154C160.907 47.9154 161.048 47.9154 161.178 47.9154C163.178 47.9154 165.177 47.9154 167.176 47.9154C167.904 47.9046 167.817 48.0024 167.817 47.2853ZM159.831 37.8435C159.06 39.5602 157.745 40.7227 156.072 41.4942C152.454 43.1674 148.021 41.8853 146.043 38.2564C145.435 37.1373 145.12 35.9421 145.044 34.6817C145.033 34.4536 145.044 34.2363 145.044 34.0081C145.022 32.7478 145.228 31.52 145.761 30.3683C146.826 28.0214 148.662 26.609 151.161 26.0548C152.801 25.6963 154.42 25.8376 155.952 26.5112C158.364 27.5651 159.842 29.423 160.461 31.9546C160.939 33.9755 160.679 35.953 159.831 37.8435Z" fill="white"/>
<path d="M248.096 30.6507C247.716 28.4016 246.77 26.3916 245.434 24.5554C244.978 23.9252 244.445 23.3494 243.869 22.817C242.283 21.3719 240.403 20.4701 238.35 19.9051C237.285 19.6118 236.199 19.4922 235.112 19.4271C233.689 19.3401 232.265 19.3401 230.853 19.6226C227.387 20.2963 224.562 22.0238 222.389 24.8053C220.672 27.0109 219.705 29.5207 219.455 32.3022C219.39 32.9976 219.401 33.6929 219.39 34.3774C219.358 36.4635 219.814 38.4301 220.629 40.3424C221.965 43.4607 224.193 45.7206 227.246 47.1765C229.332 48.1653 231.537 48.6433 233.841 48.7302C235.166 48.7846 236.481 48.665 237.785 48.4151C239.36 48.1109 240.871 47.6111 242.283 46.8288C244.402 45.6445 246.075 43.9822 247.401 41.9613C247.542 41.744 247.661 41.5049 247.77 41.2768C247.846 41.1247 247.933 40.9725 247.922 40.777C247.401 40.6357 246.89 40.5054 246.368 40.3424C245.021 39.9404 243.685 39.5166 242.337 39.1038C242.142 39.0386 241.935 38.9951 241.729 38.9408C241.523 38.8865 241.36 38.9191 241.24 39.1146C241.088 39.3428 240.903 39.5492 240.74 39.7774C240.36 40.3315 239.871 40.7661 239.317 41.1247C239.143 41.2333 238.969 41.3528 238.785 41.4506C237.883 41.9939 236.905 42.3416 235.851 42.4611C234.308 42.6349 232.798 42.4828 231.32 42.0373C230.06 41.6571 228.973 40.9943 228.158 39.9512C227.333 38.8865 226.887 37.6587 226.583 36.3657C226.8 36.2462 227.007 36.3006 227.213 36.3006C233.96 36.3006 240.697 36.3006 247.444 36.3006C247.564 36.3006 247.683 36.3006 247.813 36.3006C248.172 36.2897 248.172 36.2897 248.226 35.9203C248.281 35.4531 248.324 34.9859 248.368 34.5187C248.476 33.2257 248.313 31.9328 248.096 30.6507ZM241.153 31.6068C241.044 31.6829 240.925 31.6503 240.805 31.6503C236.209 31.6503 231.603 31.6503 227.007 31.6503C226.974 31.6503 226.942 31.6503 226.898 31.6503C226.594 31.6394 226.55 31.6068 226.605 31.3243C226.648 31.1179 226.703 30.9223 226.757 30.7159C227.083 29.662 227.626 28.7167 228.343 27.8801C228.539 27.6519 228.745 27.4564 228.984 27.2717C230.016 26.4785 231.157 25.9027 232.45 25.6854C232.787 25.631 233.135 25.5767 233.482 25.5767C234.71 25.5441 235.905 25.6962 237.057 26.1308C238.263 26.5872 239.219 27.3586 240.001 28.369C240.36 28.8254 240.599 29.3469 240.762 29.901C240.903 30.3791 241.034 30.868 241.164 31.3569C241.175 31.433 241.197 31.5199 241.153 31.6068Z" fill="white"/>
<path d="M133.13 28.2919C132.261 25.9233 130.892 23.9133 128.914 22.3378C126.524 20.4365 123.775 19.5021 120.733 19.3825C119.864 19.3499 118.995 19.3934 118.125 19.4586C117.028 19.5455 115.952 19.7302 114.909 20.0453C111.976 20.9254 109.661 22.6964 107.825 25.0976C106.174 27.2706 105.348 29.7696 105.109 32.4641C104.957 34.1808 105.033 35.8975 105.402 37.5924C106.282 41.6343 108.499 44.6982 112.117 46.73C114.051 47.8165 116.137 48.4141 118.343 48.6423C119.983 48.8052 121.602 48.74 123.221 48.4358C126.85 47.773 129.849 46.0455 132.185 43.188C132.598 42.6773 133 42.1558 133.293 41.5582C133.413 41.3083 133.554 41.0693 133.565 40.7651C133.174 40.6564 132.793 40.5695 132.413 40.45C131.066 40.0371 129.729 39.6242 128.382 39.2114C128.045 39.1136 127.708 39.0375 127.382 38.9397C127.176 38.8854 127.024 38.9397 126.893 39.1244C126.644 39.4938 126.361 39.8524 126.089 40.2109C125.937 40.4065 125.774 40.5804 125.579 40.7325C124.384 41.6886 123.026 42.2644 121.515 42.46C119.777 42.6882 118.082 42.4383 116.452 41.8298C115.529 41.4821 114.703 40.9824 114.051 40.2327C113.29 39.3526 112.747 38.353 112.454 37.223C112.389 36.9731 112.367 36.7124 112.334 36.4516C112.323 36.3756 112.378 36.3104 112.454 36.3104C112.628 36.2995 112.801 36.2886 112.975 36.2886C119.755 36.2886 126.524 36.2886 133.304 36.2886C133.456 36.2886 133.619 36.2886 133.771 36.2886C133.869 36.2886 133.934 36.2343 133.945 36.1365C133.967 35.9953 133.967 35.8649 133.978 35.7236C133.999 35.1369 134.021 34.5502 134.043 33.9526C134.097 32.0187 133.804 30.1281 133.13 28.2919ZM126.6 31.6492C126.481 31.6492 126.361 31.6492 126.231 31.6492C124.003 31.6492 121.787 31.6492 119.56 31.6492C117.3 31.6492 115.04 31.6492 112.78 31.6492C112.28 31.6492 112.269 31.6492 112.356 31.1603C112.671 29.5523 113.464 28.2159 114.757 27.2054C115.746 26.434 116.843 25.9016 118.082 25.6843C118.408 25.63 118.734 25.5865 119.06 25.5757C120.505 25.5322 121.906 25.7386 123.21 26.3797C125.307 27.401 126.524 29.0633 126.828 31.3776C126.883 31.6058 126.85 31.6384 126.6 31.6492Z" fill="white"/>
</svg>
