<svg width="216" height="44" viewBox="0 0 216 44" fill="none" xmlns="http://www.w3.org/2000/svg">
<path d="M214.995 6.53418C215.022 6.53418 215.049 6.53418 215.076 6.53418C215.076 17.5077 215.076 28.4902 215.076 39.4638C215.04 39.4548 215.013 39.4548 214.977 39.4459C214.789 39.2132 214.852 38.9267 214.852 38.6582C214.852 33.6011 214.852 28.5529 214.852 23.4957C214.852 18.0985 214.852 12.7012 214.852 7.30394C214.861 7.05332 214.798 6.7669 214.995 6.53418Z" fill="black"/>
<path d="M39.5195 44.0001C38.9735 44.0001 38.4365 44.0001 37.8905 44.0001C37.6757 43.9822 37.4609 43.9464 37.255 43.9374C35.4649 43.8569 33.7016 43.5794 31.9562 43.1856C27.3108 42.1383 22.9608 40.3393 18.8076 38.0121C15.8808 36.3741 13.1239 34.4855 10.564 32.3284C8.12051 30.2697 5.89179 27.9962 4.01214 25.4005C3.20658 24.2907 2.48158 23.1271 1.86398 21.9008C0.888354 19.9764 0.226007 17.9536 0.0111905 15.7965C0.0111905 15.698 0.020139 15.5995 0.020139 15.5011C-0.00671302 14.964 -0.00671302 14.4359 0.020139 13.8989C0.020139 13.8183 0.0111905 13.7288 0.0111905 13.6483C0.109648 12.8696 0.226003 12.0998 0.476622 11.348C0.83465 10.2828 1.37169 9.31615 2.06089 8.43004C2.87541 7.39176 4.20011 6.20132 5.29209 5.44946C5.18468 5.57477 4.96092 5.81644 4.92512 5.86119C4.7819 6.04021 4.63869 6.21027 4.49548 6.39823C3.82418 7.2754 3.48405 8.26892 3.4393 9.37881C3.39454 10.5961 3.68097 11.7239 4.20011 12.8159C4.75505 14.0063 5.52481 15.0535 6.39302 16.0292C7.57452 17.3628 8.91712 18.5175 10.3492 19.5736C12.7033 21.3101 15.2274 22.7511 17.8768 23.9953C21.3675 25.6333 24.9836 26.9043 28.7339 27.7814C30.0139 28.0858 31.3028 28.3274 32.6096 28.5064C33.8 28.6765 34.9905 28.7839 36.1899 28.8555C37.3535 28.9271 38.5081 28.9003 39.6627 28.8197C40.7726 28.7392 41.8736 28.5243 42.9476 28.229C45.1674 27.6203 47.2529 26.7163 49.1594 25.4005C50.5736 24.4249 51.8088 23.2613 52.8202 21.874C54.0733 20.1644 54.87 18.2579 55.2638 16.1724C55.4339 15.2594 55.5234 14.3375 55.5413 13.4066C55.5681 12.0372 55.2727 10.7393 54.6551 9.52203C54.6193 9.44147 54.5835 9.36986 54.5477 9.2893C54.5298 9.20874 54.2524 8.83281 54.6462 9.19979C56.2036 10.8825 57.3851 12.7801 58.1191 14.9551C58.5039 16.0918 58.7546 17.2644 58.8709 18.4638C58.9962 19.69 58.9604 20.9163 58.8888 22.1425C58.8441 22.8586 58.7814 23.5657 58.6829 24.2728C58.1549 28.3006 56.9286 32.0688 54.5656 35.4074C51.8625 39.2294 48.2644 41.8609 43.789 43.2751C42.5986 43.651 41.3813 43.8927 40.1282 43.9374C39.9134 43.9464 39.7164 43.9822 39.5195 44.0001Z" fill="#E95522"/>
<path d="M30.1535 0C30.2698 0 30.3862 0 30.4936 0C31.0933 0.0358028 31.693 0.0626505 32.2927 0.107404C33.0803 0.170059 33.8591 0.241664 34.6378 0.331171C35.3717 0.411727 36.1146 0.501241 36.8486 0.6176C40.0798 1.10989 43.2394 1.87069 46.2468 3.17749C47.6431 3.78614 48.9678 4.51114 50.1762 5.44201C51.0354 6.09541 51.7962 6.84727 52.4317 7.72444C53.5953 9.33556 54.0697 11.1257 53.9175 13.0949C53.837 14.0884 53.6938 15.0819 53.4342 16.0486C52.7719 18.4653 51.5098 20.5239 49.666 22.2156C47.9206 23.8267 45.8709 24.9545 43.6422 25.7422C42.4249 26.1718 41.1807 26.4851 39.9097 26.6641C39.498 26.7268 39.0863 26.7536 38.6745 26.7805C37.6004 26.8431 36.5264 26.8252 35.4612 26.7715C34.6736 26.7268 33.8949 26.6641 33.1161 26.5477C32.6239 26.4761 31.6214 26.3687 31.505 26.2882C31.5498 26.2792 32.2658 26.145 32.5881 26.0913C33.8859 25.8675 35.1569 25.5274 36.3563 24.9724C37.4393 24.4622 38.4149 23.7999 39.1937 22.878C40.0977 21.8039 40.5721 20.5597 40.6526 19.1545C40.7421 17.5971 40.3662 16.1202 39.7486 14.706C39.0504 13.1038 38.0838 11.6806 36.956 10.3649C34.8794 7.95716 32.4001 6.04172 29.6254 4.51115C27.1729 3.1596 24.5682 2.19291 21.8293 1.59322C20.8537 1.3784 19.8602 1.22624 18.8666 1.11884C18.3833 1.06513 17.9 1.06513 17.4166 1.00247C17.3361 0.993522 17.2555 0.975621 17.166 0.912966C17.4972 0.850311 17.8194 0.778708 18.1506 0.725004C19.3231 0.54599 20.4957 0.375931 21.6772 0.259572C22.8408 0.143213 24.0133 0.0626526 25.1858 0.0089485C25.3827 0.0089485 25.5886 0.0089485 25.7855 0.0089485C26.0451 0.0089485 26.2957 0.0089485 26.5553 0.0089485C27.3609 0.0089485 28.1664 0.0089485 28.972 0.0089485C29.1689 0.0089485 29.3748 0.0089485 29.5717 0.0089485C29.7507 -2.18536e-06 29.9565 0 30.1535 0Z" fill="#E95522"/>
<path d="M77.6771 30.6838C77.6771 33.4585 77.6771 36.2243 77.6771 38.999C77.6771 39.5181 77.7308 39.4644 77.2296 39.4644C75.5379 39.4644 73.8552 39.4644 72.1635 39.4644C72.065 39.4644 71.9666 39.4644 71.8592 39.4644C71.7607 39.4644 71.6981 39.4197 71.6981 39.3123C71.6981 39.1691 71.6981 39.0259 71.6981 38.8826C71.6981 33.4138 71.6981 27.9359 71.6981 22.4671C71.6981 21.7779 71.7876 21.8763 71.1163 21.8763C69.9885 21.8674 68.8518 21.8763 67.724 21.8763C67.6076 21.8763 67.4912 21.8763 67.3838 21.8763C67.2764 21.8763 67.2317 21.8137 67.2227 21.7152C67.2138 21.6436 67.2227 21.572 67.2227 21.5004C67.2227 19.9877 67.2227 18.4751 67.2227 16.9535C67.2227 16.8997 67.2227 16.8371 67.2227 16.7834C67.2317 16.6402 67.2675 16.6044 67.4017 16.5954C67.5181 16.5865 67.6345 16.5954 67.7419 16.5954C68.9055 16.5954 70.0601 16.5954 71.2237 16.5954C71.34 16.5954 71.4564 16.5954 71.5638 16.5865C71.6444 16.5775 71.6981 16.5328 71.6981 16.4522C71.6981 16.3358 71.707 16.2195 71.707 16.1121C71.707 15.3155 71.707 14.5099 71.707 13.7133C71.707 13.1226 71.7697 12.5497 71.9039 11.9679C72.0382 11.3951 72.1993 10.8312 72.3962 10.2852C72.8259 9.09475 73.5867 8.14597 74.5802 7.37621C75.8601 6.39164 77.3012 5.89039 78.9213 5.87249C79.7984 5.86354 80.6667 5.8725 81.5349 5.9441C82.4926 6.01571 83.4324 6.19472 84.3185 6.58855C84.3454 6.5975 84.3722 6.60645 84.3991 6.62435C84.5334 6.69596 84.7482 6.687 84.8108 6.82126C84.8914 6.99133 84.8019 7.17929 84.7571 7.35831C84.5871 8.03856 84.3633 8.70091 84.1485 9.36326C83.9247 10.0435 83.692 10.7148 83.5309 11.413C83.4861 11.6099 83.4145 11.6099 83.2624 11.5651C83.0386 11.5025 82.8238 11.4398 82.609 11.3682C81.9198 11.1445 81.2216 11.046 80.4966 11.0818C80.0938 11.0997 79.7 11.1892 79.333 11.3414C78.4379 11.7173 77.9367 12.4065 77.7666 13.3374C77.7129 13.6148 77.6861 13.9013 77.6861 14.1877C77.695 14.859 77.6861 15.5303 77.6861 16.2016C77.6861 16.2732 77.6861 16.3448 77.6861 16.4164C77.6861 16.5149 77.7308 16.5775 77.8382 16.5865C77.9546 16.5954 78.071 16.5865 78.1784 16.5865C80.1386 16.5865 82.0988 16.5865 84.059 16.5865C84.6318 16.5865 84.5781 16.5059 84.5781 17.1146C84.5781 18.5735 84.5781 20.0325 84.5781 21.4914C84.5781 21.9032 84.5513 21.8674 84.2022 21.8674C82.1972 21.8674 80.1923 21.8674 78.1873 21.8674C77.6145 21.8674 77.6771 21.8137 77.6771 22.3597C77.6771 25.1433 77.6771 27.918 77.6771 30.6838Z" fill="black"/>
<path d="M166.163 32.7326C166.315 32.67 166.306 32.5536 166.342 32.4641C167.192 30.298 168.024 28.132 168.875 25.9569C170.029 22.9764 171.193 19.9958 172.348 17.0152C172.544 16.514 172.437 16.5856 172.983 16.5856C174.854 16.5856 176.733 16.5856 178.604 16.5856C178.694 16.5856 178.774 16.5856 178.864 16.5856C178.98 16.5945 179.025 16.6393 178.98 16.7467C178.873 17.0242 178.756 17.3016 178.64 17.5791C175.695 24.7307 172.759 31.8913 169.814 39.0429C169.618 39.5262 169.716 39.4546 169.206 39.4546C167.201 39.4546 165.196 39.4546 163.2 39.4546C163.146 39.4546 163.084 39.4456 163.03 39.4546C162.842 39.4814 162.752 39.4009 162.681 39.2219C162.296 38.2731 161.902 37.3243 161.508 36.3666C158.859 29.9221 156.209 23.4866 153.56 17.0421C153.336 16.505 153.363 16.5766 153.864 16.5766C155.726 16.5766 157.588 16.5766 159.45 16.5766C159.521 16.5766 159.593 16.5856 159.664 16.5766C159.861 16.5498 159.942 16.6572 160.005 16.8183C160.264 17.5165 160.542 18.2056 160.81 18.8949C162.555 23.406 164.31 27.9171 166.055 32.4283C166.082 32.5357 166.118 32.6252 166.163 32.7326Z" fill="black"/>
<path d="M33.2965 10.5712C31.8912 9.89091 30.4054 9.45233 28.8569 9.17486C27.389 8.91529 25.9121 8.80788 24.4174 8.86159C22.0902 8.95109 19.8167 9.34492 17.6506 10.2131C16.5318 10.6607 15.4756 11.2246 14.5448 11.9943C14.0167 12.4329 13.5423 12.9252 13.1663 13.507C12.6204 14.3573 12.3339 15.2882 12.3876 16.3086C12.4324 17.0246 12.6293 17.7138 12.9426 18.3583C13.0858 18.6536 13.2469 18.9401 13.3991 19.2265C13.4349 19.307 13.5244 19.3876 13.3991 19.3339C13.3722 19.3249 13.3454 19.316 13.3454 19.307C13.3185 19.2981 13.2917 19.2802 13.2469 19.2623C11.0271 17.857 9.46971 16.4786 8.48514 15.4851C7.66167 14.6616 7.06198 13.9187 6.48914 13.0237C5.95209 12.1912 5.52246 11.3051 5.29869 10.3295C4.84221 8.3514 5.28974 6.62391 6.7129 5.16495C7.49161 4.36833 8.43143 3.7955 9.45181 3.34796C10.5706 2.85567 11.7521 2.5782 12.9515 2.39023C14.3926 2.17541 15.8337 2.15752 17.2747 2.24702C18.7516 2.32758 20.2016 2.56924 21.6337 2.93622C24.8291 3.74178 27.7739 5.09334 30.4233 7.05354C31.9359 8.17238 33.2875 9.46128 34.4869 10.9113C34.5406 10.974 34.7465 11.2514 34.7912 11.3141C34.827 11.3857 33.744 10.786 33.2965 10.5712Z" fill="#E95522"/>
<path d="M214.998 6.53304C214.998 8.71701 214.998 10.901 214.998 13.0939C214.998 21.6776 214.998 30.2703 214.998 38.854C214.998 39.0509 214.989 39.2568 214.989 39.4537C214.873 39.4626 214.765 39.4716 214.649 39.4716C212.948 39.4716 211.248 39.4716 209.538 39.4716C209.44 39.4716 209.341 39.4716 209.234 39.4716C209.153 39.4716 209.099 39.4268 209.099 39.3463C209.099 39.2478 209.091 39.1493 209.091 39.0509C209.091 28.3548 209.091 17.6498 209.091 6.95372C209.091 6.52409 209.055 6.53304 209.502 6.53304C211.221 6.53304 212.939 6.53304 214.649 6.53304C214.774 6.51514 214.882 6.52409 214.998 6.53304Z" fill="black"/>
<path d="M150.151 28.0244C150.151 31.6852 150.151 35.3371 150.151 38.9979C150.151 39.5171 150.205 39.4634 149.703 39.4634C147.976 39.4634 146.239 39.4634 144.512 39.4634C144.414 39.4634 144.315 39.4634 144.208 39.4634C144.127 39.4634 144.073 39.4186 144.073 39.3291C144.073 39.2306 144.064 39.1322 144.064 39.0248C144.064 31.6941 144.064 24.3635 144.064 17.0329C144.064 16.9345 144.064 16.836 144.064 16.7286C144.064 16.648 144.109 16.5943 144.19 16.5854C144.279 16.5764 144.36 16.5764 144.449 16.5764C146.222 16.5764 148.003 16.5764 149.775 16.5764C150.16 16.5764 150.151 16.5675 150.151 16.9524C150.151 20.649 150.151 24.3367 150.151 28.0244Z" fill="black"/>
<path d="M143.615 9.86416C143.615 9.83731 143.615 9.81046 143.615 9.77465C143.544 8.95119 143.884 8.27989 144.421 7.68019C144.716 7.34902 145.065 7.07155 145.45 6.84778C146.3 6.3734 147.204 6.24809 148.135 6.53451C149.442 6.94624 150.328 7.79656 150.686 9.13021C150.883 9.85522 150.794 10.5713 150.471 11.2605C150.239 11.7617 149.917 12.1913 149.514 12.5673C149.057 12.988 148.529 13.2386 147.912 13.3191C147.571 13.3639 147.231 13.3728 146.882 13.3818C146.363 13.3907 145.898 13.2565 145.45 13.0059C144.85 12.6657 144.376 12.2003 144.027 11.6185C143.75 11.1531 143.579 10.6608 143.606 10.1148C143.615 10.0342 143.615 9.94472 143.615 9.86416Z" fill="black"/>
<path d="M138.246 38.9544C138.246 33.6198 138.246 28.2941 138.246 22.9595C138.246 21.599 138.246 20.2475 138.246 18.887C138.246 14.9129 138.246 10.9388 138.246 6.96465C138.246 6.45446 138.3 6.51712 137.781 6.50816C136.107 6.50816 134.433 6.50816 132.759 6.50816C132.195 6.50816 132.267 6.43657 132.267 7.01836C132.267 10.9209 132.267 14.8234 132.267 18.7259C132.267 18.878 132.303 19.0391 132.24 19.1823C132.025 19.1913 131.936 19.0123 131.802 18.8959C131.685 18.7885 131.596 18.6632 131.479 18.5468C131.3 18.3678 131.13 18.1709 130.924 18.0098C130.146 17.3922 129.313 16.882 128.373 16.5508C127.559 16.2644 126.718 16.1033 125.858 16.0228C124.901 15.9332 123.943 15.969 122.994 16.1033C122.063 16.2376 121.195 16.5419 120.336 16.9178C118.787 17.616 117.436 18.5737 116.353 19.8984C114.437 22.2166 113.542 24.9018 113.506 27.8914C113.497 28.8938 113.605 29.8874 113.82 30.8719C114.196 32.5905 114.867 34.1926 115.896 35.6248C117.105 37.3164 118.662 38.5874 120.613 39.3393C121.499 39.6794 122.421 39.8763 123.352 40.0106C124.659 40.1986 125.948 40.1807 127.237 39.8853C128.812 39.5183 130.217 38.8202 131.345 37.6208C131.551 37.4059 131.775 37.2001 131.99 36.9942C132.043 36.9495 132.106 36.9047 132.169 36.8778C132.213 36.851 132.258 36.8778 132.258 36.9226C132.267 37.0032 132.267 37.0927 132.267 37.1822C132.267 37.7819 132.267 38.3816 132.267 38.9813C132.267 39.0797 132.267 39.1782 132.267 39.2856C132.276 39.4378 132.294 39.4646 132.437 39.4735C132.553 39.4735 132.67 39.4735 132.777 39.4735C134.424 39.4735 136.071 39.4735 137.718 39.4735C138.318 39.4646 138.246 39.5452 138.246 38.9544ZM131.667 31.1763C131.032 32.5905 129.949 33.5482 128.57 34.1837C125.59 35.5621 121.938 34.5059 120.309 31.5164C119.808 30.5945 119.548 29.6099 119.485 28.5716C119.476 28.3836 119.485 28.2046 119.485 28.0167C119.468 26.9784 119.638 25.967 120.076 25.0182C120.953 23.0848 122.466 21.9212 124.525 21.4648C125.876 21.1694 127.21 21.2858 128.472 21.8407C130.459 22.7089 131.676 24.2395 132.186 26.325C132.58 27.9898 132.365 29.6188 131.667 31.1763Z" fill="black"/>
<path d="M204.381 25.2495C204.068 23.3967 203.29 21.7408 202.189 20.2281C201.813 19.709 201.374 19.2346 200.9 18.796C199.593 17.6056 198.044 16.8627 196.353 16.3972C195.476 16.1556 194.58 16.0571 193.685 16.0034C192.513 15.9318 191.34 15.9318 190.177 16.1645C187.321 16.7195 184.994 18.1426 183.204 20.434C181.79 22.251 180.993 24.3186 180.787 26.61C180.734 27.1828 180.743 27.7557 180.734 28.3196C180.707 30.0381 181.083 31.6582 181.754 33.2335C182.855 35.8023 184.69 37.6641 187.205 38.8635C188.924 39.678 190.741 40.0718 192.638 40.1434C193.73 40.1882 194.813 40.0897 195.887 39.8839C197.185 39.6332 198.429 39.2215 199.593 38.577C201.338 37.6014 202.717 36.232 203.809 34.5671C203.925 34.3881 204.023 34.1912 204.113 34.0033C204.176 33.8779 204.247 33.7526 204.238 33.5915C203.809 33.4752 203.388 33.3677 202.958 33.2335C201.848 32.9023 200.748 32.5532 199.638 32.2131C199.477 32.1594 199.306 32.1236 199.136 32.0789C198.966 32.0341 198.832 32.0609 198.734 32.2221C198.608 32.41 198.456 32.5801 198.322 32.7681C198.009 33.2245 197.606 33.5826 197.149 33.8779C197.006 33.9674 196.863 34.0659 196.711 34.1464C195.968 34.594 195.162 34.8804 194.294 34.9789C193.023 35.1221 191.779 34.9968 190.562 34.6298C189.523 34.3165 188.628 33.7705 187.957 32.9113C187.277 32.0341 186.91 31.0227 186.659 29.9575C186.838 29.8591 187.008 29.9038 187.178 29.9038C192.737 29.9038 198.286 29.9038 203.844 29.9038C203.943 29.9038 204.041 29.9038 204.149 29.9038C204.444 29.8949 204.444 29.8949 204.489 29.5906C204.534 29.2057 204.569 28.8208 204.605 28.4359C204.695 27.3708 204.561 26.3057 204.381 25.2495ZM198.662 26.0371C198.572 26.0998 198.474 26.0729 198.376 26.0729C194.589 26.0729 190.794 26.0729 187.008 26.0729C186.981 26.0729 186.954 26.0729 186.919 26.0729C186.668 26.064 186.632 26.0371 186.677 25.8044C186.713 25.6343 186.758 25.4732 186.802 25.3032C187.071 24.435 187.518 23.6562 188.109 22.967C188.27 22.7791 188.44 22.618 188.637 22.4658C189.488 21.8124 190.427 21.338 191.492 21.159C191.77 21.1143 192.056 21.0695 192.343 21.0695C193.354 21.0427 194.339 21.168 195.288 21.526C196.281 21.9019 197.069 22.5374 197.713 23.3698C198.009 23.7458 198.206 24.1754 198.34 24.6319C198.456 25.0257 198.564 25.4285 198.671 25.8313C198.68 25.8939 198.698 25.9655 198.662 26.0371Z" fill="black"/>
<path d="M109.672 23.3072C108.956 21.3559 107.828 19.7001 106.199 18.4022C104.23 16.8358 101.965 16.0661 99.4592 15.9676C98.7432 15.9408 98.0271 15.9766 97.3111 16.0303C96.407 16.1019 95.5209 16.254 94.6617 16.5136C92.245 17.2386 90.3385 18.6976 88.8258 20.6757C87.4653 22.4658 86.7851 24.5245 86.5881 26.7442C86.4628 28.1585 86.5255 29.5727 86.8298 30.969C87.5548 34.2986 89.3808 36.8227 92.3613 38.4965C93.9546 39.3916 95.6731 39.8839 97.4901 40.0718C98.8416 40.2061 100.175 40.1524 101.509 39.9018C104.498 39.3558 106.969 37.9326 108.893 35.5786C109.233 35.1579 109.565 34.7283 109.806 34.236C109.905 34.0301 110.021 33.8332 110.03 33.5826C109.708 33.4931 109.394 33.4215 109.081 33.323C107.971 32.9829 106.87 32.6428 105.761 32.3026C105.483 32.2221 105.206 32.1594 104.937 32.0789C104.767 32.0341 104.642 32.0789 104.534 32.231C104.328 32.5353 104.096 32.8307 103.872 33.1261C103.747 33.2872 103.612 33.4304 103.451 33.5557C102.467 34.3434 101.348 34.8178 100.104 34.9789C98.6716 35.1668 97.2753 34.961 95.9327 34.4597C95.1719 34.1733 94.4916 33.7616 93.9546 33.144C93.328 32.419 92.8805 31.5955 92.6388 30.6647C92.5851 30.4588 92.5672 30.244 92.5403 30.0292C92.5314 29.9665 92.5762 29.9128 92.6388 29.9128C92.782 29.9038 92.9252 29.8949 93.0684 29.8949C98.6537 29.8949 104.23 29.8949 109.815 29.8949C109.94 29.8949 110.075 29.8949 110.2 29.8949C110.281 29.8949 110.334 29.8501 110.343 29.7696C110.361 29.6532 110.361 29.5458 110.37 29.4295C110.388 28.9461 110.406 28.4628 110.424 27.9705C110.469 26.3773 110.227 24.8199 109.672 23.3072ZM104.293 26.0729C104.194 26.0729 104.096 26.0729 103.988 26.0729C102.153 26.0729 100.327 26.0729 98.4926 26.0729C96.6308 26.0729 94.7691 26.0729 92.9073 26.0729C92.4956 26.0729 92.4866 26.0729 92.5582 25.6702C92.8178 24.3455 93.4712 23.2445 94.5364 22.4121C95.3509 21.7766 96.2549 21.338 97.2753 21.159C97.5438 21.1143 97.8123 21.0785 98.0808 21.0695C99.2713 21.0337 100.426 21.2038 101.5 21.7319C103.227 22.5732 104.23 23.9427 104.481 25.8492C104.525 26.0371 104.498 26.064 104.293 26.0729Z" fill="black"/>
</svg>
