<svg width="51" height="50" viewBox="0 0 51 50" fill="none" xmlns="http://www.w3.org/2000/svg">
<path d="M8.83464 8.33301H42.168C44.4596 8.33301 46.3346 10.208 46.3346 12.4997V37.4997C46.3346 39.7913 44.4596 41.6663 42.168 41.6663H8.83464C6.54297 41.6663 4.66797 39.7913 4.66797 37.4997V12.4997C4.66797 10.208 6.54297 8.33301 8.83464 8.33301Z" fill="#E95522"/>
<path d="M46.3346 12.4997L25.5013 27.083L4.66797 12.4997" fill="#E95522"/>
<path d="M46.3346 12.4997C46.3346 10.208 44.4596 8.33301 42.168 8.33301H8.83464C6.54297 8.33301 4.66797 10.208 4.66797 12.4997M46.3346 12.4997V37.4997C46.3346 39.7913 44.4596 41.6663 42.168 41.6663H8.83464C6.54297 41.6663 4.66797 39.7913 4.66797 37.4997V12.4997M46.3346 12.4997L25.5013 27.083L4.66797 12.4997" stroke="#44261A" stroke-width="2" stroke-linecap="round" stroke-linejoin="round"/>
</svg>
