<svg width="51" height="50" viewBox="0 0 51 50" fill="none" xmlns="http://www.w3.org/2000/svg">
<path d="M44.25 20.8333C44.25 35.4166 25.5 47.9166 25.5 47.9166C25.5 47.9166 6.75 35.4166 6.75 20.8333C6.75 15.8605 8.72544 11.0914 12.2417 7.57506C15.7581 4.05875 20.5272 2.08331 25.5 2.08331C30.4728 2.08331 35.2419 4.05875 38.7582 7.57506C42.2746 11.0914 44.25 15.8605 44.25 20.8333Z" fill="#E95522"/>
<path d="M25.5 27.0833C28.9518 27.0833 31.75 24.2851 31.75 20.8333C31.75 17.3815 28.9518 14.5833 25.5 14.5833C22.0482 14.5833 19.25 17.3815 19.25 20.8333C19.25 24.2851 22.0482 27.0833 25.5 27.0833Z" fill="#E95522"/>
<path d="M44.25 20.8333C44.25 35.4166 25.5 47.9166 25.5 47.9166C25.5 47.9166 6.75 35.4166 6.75 20.8333C6.75 15.8605 8.72544 11.0914 12.2417 7.57506C15.7581 4.05875 20.5272 2.08331 25.5 2.08331C30.4728 2.08331 35.2419 4.05875 38.7582 7.57506C42.2746 11.0914 44.25 15.8605 44.25 20.8333Z" stroke="#44261A" stroke-width="2.625" stroke-linecap="round" stroke-linejoin="round"/>
<path d="M25.5 27.0833C28.9518 27.0833 31.75 24.2851 31.75 20.8333C31.75 17.3815 28.9518 14.5833 25.5 14.5833C22.0482 14.5833 19.25 17.3815 19.25 20.8333C19.25 24.2851 22.0482 27.0833 25.5 27.0833Z" stroke="#44261A" stroke-width="2.625" stroke-linecap="round" stroke-linejoin="round"/>
</svg>
