<svg width="58" height="62" viewBox="0 0 58 62" fill="none" xmlns="http://www.w3.org/2000/svg">
<path d="M47.8427 40.697V52.4825C47.8427 56.6198 52.8939 58.8065 55.8902 55.8157C56.1448 55.5612 56.3682 55.2755 56.5605 54.9696C57.022 53.792 57.2766 52.5136 57.2766 51.1803V40.6988H47.8427V40.697ZM52.7895 59.7607C48.6889 59.8853 45.2823 56.574 45.2823 52.4825V0H0.724609V39.415C0.724609 43.9881 2.11652 48.2463 4.49377 51.7865C6.94427 55.4311 10.4387 58.323 14.5339 60.0208C14.6126 60.0464 14.6895 60.0831 14.7628 60.1307C18.8634 62.6379 37.2843 61.9841 44.2659 61.735C45.5589 61.6874 46.4929 61.6563 46.7988 61.6563C49.0204 61.6563 51.0863 60.9548 52.7895 59.7607ZM26.8908 13.5034C26.1856 13.5034 25.6142 12.9265 25.6142 12.2214C25.6142 11.5163 26.1856 10.9393 26.8908 10.9393H39.8594C40.5645 10.9393 41.1414 11.5163 41.1414 12.2214C41.1414 12.9265 40.5645 13.5034 39.8594 13.5034H26.8908ZM27.3633 22.9061C26.6563 22.9061 26.0812 22.3347 26.0812 21.6241C26.0812 20.9135 26.6582 20.3421 27.3633 20.3421H39.8594C40.5645 20.3421 41.1414 20.919 41.1414 21.6241C41.1414 22.3292 40.5645 22.9061 39.8594 22.9061H27.3633ZM10.4076 43.4643C9.70245 43.4643 9.12554 42.8874 9.12554 42.1823C9.12554 41.4772 9.70245 40.9003 10.4076 40.9003H38.0737C38.7806 40.9003 39.3557 41.4772 39.3557 42.1823C39.3557 42.8874 38.7788 43.4643 38.0737 43.4643H10.4076ZM30.3431 51.8122C29.638 51.8122 29.0665 51.2352 29.0665 50.5301C29.0665 49.825 29.638 49.2481 30.3431 49.2481H38.0737C38.7806 49.2481 39.3557 49.8195 39.3557 50.5301C39.3557 51.2407 38.7788 51.8122 38.0737 51.8122H30.3431ZM27.3633 32.3071C26.6563 32.3071 26.0812 31.7356 26.0812 31.025C26.0812 30.3144 26.6582 29.7485 27.3633 29.7485H39.8594C40.5645 29.7485 41.1414 30.3199 41.1414 31.025C41.1414 31.7301 40.5645 32.3071 39.8594 32.3071H27.3633ZM14.0265 51.8122C13.3159 51.8122 12.7445 51.2352 12.7445 50.5301C12.7445 49.825 13.3159 49.2481 14.0265 49.2481H24.975C25.6802 49.2481 26.2571 49.8195 26.2571 50.5301C26.2571 51.2407 25.6802 51.8122 24.975 51.8122H14.0265ZM11.9698 19.7084V14.1114C10.49 14.4228 8.85448 15.4612 8.85448 16.9777C8.85448 18.6901 10.2556 19.3183 11.9698 19.7084ZM14.5339 22.8127V28.4097C16.0137 28.0983 17.6492 27.0599 17.6492 25.5434C17.6492 23.831 16.2481 23.2028 14.5339 22.8127ZM11.9698 9.19579C11.9698 8.48518 12.5412 7.91376 13.2518 7.91376C13.9624 7.91376 14.5339 8.48518 14.5339 9.19579V11.5108C17.4514 11.9412 20.2132 13.9814 20.2132 16.9777C20.2132 17.6883 19.6363 18.2597 18.9312 18.2597C18.2261 18.2597 17.6492 17.6883 17.6492 16.9777C17.6492 15.4612 16.0137 14.4228 14.5339 14.1114V20.1956C17.5137 20.7761 20.2132 21.6644 20.2132 25.5434C20.2132 28.5397 17.4514 30.58 14.5339 31.0104V33.3253C14.5339 34.036 13.9569 34.6074 13.2518 34.6074C12.5467 34.6074 11.9698 34.036 11.9698 33.3253V31.0104C9.05228 30.58 6.29043 28.5397 6.29043 25.5434C6.29043 24.8328 6.86185 24.2614 7.57246 24.2614C8.28307 24.2614 8.85448 24.8328 8.85448 25.5434C8.85448 27.0599 10.49 28.0983 11.9698 28.4097V22.3256C8.99001 21.745 6.29043 20.8567 6.29043 16.9777C6.29043 13.9814 9.05228 11.9412 11.9698 11.5108V9.19579Z" fill="#E95522"/>
</svg>
