<svg width="50" height="50" viewBox="0 0 50 50" fill="none" xmlns="http://www.w3.org/2000/svg">
<path d="M45.832 35.25V41.5C45.8344 42.0803 45.7155 42.6546 45.4831 43.1862C45.2506 43.7178 44.9097 44.195 44.4822 44.5873C44.0546 44.9795 43.5499 45.2781 43.0002 45.464C42.4506 45.6499 41.8682 45.7189 41.2903 45.6667C34.8796 44.9701 28.7216 42.7795 23.3112 39.2709C18.2775 36.0723 14.0098 31.8046 10.8112 26.7709C7.2903 21.3359 5.09919 15.1479 4.41535 8.70837C4.36329 8.13226 4.43175 7.55162 4.61639 7.00342C4.80103 6.45522 5.09779 5.95148 5.48778 5.52425C5.87777 5.09702 6.35244 4.75568 6.88158 4.52196C7.41072 4.28824 7.98272 4.16725 8.56118 4.16671H14.8112C15.8222 4.15675 16.8024 4.51479 17.569 5.17407C18.3356 5.83335 18.8363 6.74889 18.9778 7.75004C19.2416 9.75018 19.7309 11.7141 20.4362 13.6042C20.7165 14.3499 20.7771 15.1603 20.611 15.9394C20.4448 16.7185 20.0588 17.4336 19.4987 18L16.8528 20.6459C19.8186 25.8616 24.1371 30.1801 29.3528 33.1459L31.9987 30.5C32.5651 29.9399 33.2803 29.5539 34.0593 29.3877C34.8384 29.2216 35.6488 29.2822 36.3945 29.5625C38.2847 30.2679 40.2485 30.7571 42.2487 31.0209C43.2607 31.1636 44.1849 31.6734 44.8456 32.4532C45.5063 33.2329 45.8574 34.2283 45.832 35.25Z" fill="#E95522"/>
</svg>
