<svg width="44" height="44" viewBox="0 0 44 44" fill="none" xmlns="http://www.w3.org/2000/svg">
<path d="M1.83398 1.83325H9.16732L14.0807 26.3816C14.2483 27.2256 14.7075 27.9838 15.3778 28.5235C16.0482 29.0631 16.8869 29.3497 17.7473 29.3333H35.5673C36.4277 29.3497 37.2665 29.0631 37.9368 28.5235C38.6072 27.9838 39.0663 27.2256 39.234 26.3816L42.1673 10.9999H11.0007M18.334 38.4999C18.334 39.5124 17.5132 40.3333 16.5007 40.3333C15.4881 40.3333 14.6673 39.5124 14.6673 38.4999C14.6673 37.4874 15.4881 36.6666 16.5007 36.6666C17.5132 36.6666 18.334 37.4874 18.334 38.4999ZM38.5007 38.4999C38.5007 39.5124 37.6798 40.3333 36.6673 40.3333C35.6548 40.3333 34.834 39.5124 34.834 38.4999C34.834 37.4874 35.6548 36.6666 36.6673 36.6666C37.6798 36.6666 38.5007 37.4874 38.5007 38.4999Z" stroke="black" stroke-width="2" stroke-linecap="round" stroke-linejoin="round"/>
</svg>
