<svg width="25" height="28" viewBox="0 0 25 28" fill="none" xmlns="http://www.w3.org/2000/svg">
<path fill-rule="evenodd" clip-rule="evenodd" d="M3.10501 26.1705L1.42188 4.23242H22.9113L21.2282 26.1705C21.1488 27.2028 20.2867 27.9998 19.2522 27.9998H5.08252C4.04665 27.9998 3.18436 27.2028 3.10501 26.1705ZM9.19306 9.1846C9.19306 8.63772 8.74971 8.19476 8.20235 8.19476C7.65499 8.19476 7.21027 8.63772 7.21027 9.1846V21.0682C7.21027 21.6151 7.65499 22.058 8.20235 22.058C8.74971 22.058 9.19306 21.6151 9.19306 21.0682V9.1846ZM13.1572 9.1846C13.1572 8.63772 12.7138 8.19476 12.1665 8.19476C11.6191 8.19476 11.1757 8.63772 11.1757 9.1846V21.0682C11.1757 21.6151 11.6191 22.058 12.1665 22.058C12.7138 22.058 13.1572 21.6151 13.1572 21.0682V9.1846ZM17.1227 9.1846C17.1227 8.63772 16.678 8.19476 16.1306 8.19476C15.5833 8.19476 15.1399 8.63772 15.1399 9.1846V21.0682C15.1399 21.6151 15.5833 22.058 16.1306 22.058C16.678 22.058 17.1227 21.6151 17.1227 21.0682V9.1846Z" fill="#ABABAB"/>
<path fill-rule="evenodd" clip-rule="evenodd" d="M7.90406 0H16.5277V2.15332H24.4314V3.59025H0V2.15332H7.90371L7.90406 0ZM9.34226 2.15332H15.0909V1.43553H9.34226V2.15332Z" fill="#ABABAB"/>
</svg>
